<svg xmlns="http://www.w3.org/2000/svg" viewBox="0 0 322.67 499.93">
	<g fill="currentColor">
		<path d="M224.68,0,31.16,192.69c-41.15,41-41.46,52.54.58,93.27L225,90.14C265.7,49.67,264.68,39.5,224.68,0Z" transform="translate(0 0.02)"/>
		<path d="M147.84,297.73l15.53-15.57,61.4-61.65c42.57-42.95,41.41-53.28,0-94.2l-82.57,82.9L95.85,255.69c-40.54,39.93-42.69,51.14-.87,93.09l18.53,18c41.15,40.12,53.45,39.58,94.15-1.11L163.5,322.64l-15.63-15.48-4.75-4.7Z" transform="translate(0 0.02)"/>
		<path d="M291.71,188.33,177.56,302.78,224.43,349l67.71-68C333.25,240.18,332.58,228.67,291.71,188.33Z" transform="translate(0 0.02)"/>
		<polygon points="0 499.93 68.33 499.93 68.33 485.93 14.11 485.93 14.11 459.58 61.26 459.58 61.26 445.59 14.11 445.59 14.11 421.72 68.33 421.72 68.33 407.73 0 407.73 0 499.93"/>
		<polygon points="139.39 457.19 88.43 407.73 82.36 407.73 81.44 407.73 81.44 407.73 77.04 407.73 77.04 499.93 91.05 499.93 91.05 429.62 139.39 476.74 139.39 499.93 153.4 499.93 153.4 407.73 139.39 407.73 139.39 457.19"/>
		<polygon points="204.87 447.92 177.96 407.64 161.11 407.64 197.78 462.72 197.78 499.93 211.87 499.93 211.87 462.71 248.4 407.64 231.56 407.64 204.87 447.92"/>
		<path d="M317.41,426.33a37.41,37.41,0,0,0-13.57-13.6h0a37.49,37.49,0,0,0-37.48,0,37.44,37.44,0,0,0-13.57,13.61,36.83,36.83,0,0,0-5,18.78v17.37a36.83,36.83,0,0,0,5,18.78,37.34,37.34,0,0,0,13.57,13.6,37.42,37.42,0,0,0,37.48,0,37.26,37.26,0,0,0,13.57-13.6,36.84,36.84,0,0,0,5-18.78V445.12A36.91,36.91,0,0,0,317.41,426.33Zm-56.19,36.16V445.12a23.22,23.22,0,0,1,3.19-12,23.46,23.46,0,0,1,8.71-8.73,24.06,24.06,0,0,1,24,0,23.56,23.56,0,0,1,8.71,8.74,23.22,23.22,0,0,1,3.19,12v17.37a23.31,23.31,0,0,1-3.18,12,23.76,23.76,0,0,1-8.71,8.73,24,24,0,0,1-24,0,23.61,23.61,0,0,1-8.71-8.73h0A23.22,23.22,0,0,1,261.22,462.49Z" transform="translate(0 0.02)"/>
	</g>
</svg>