<?xml version="1.0" encoding="utf-8"?>
<svg version="1.1" xmlns="http://www.w3.org/2000/svg" xmlns:xlink="http://www.w3.org/1999/xlink" viewBox="0 0 512 512">
	<g fill="currentColor">
		<g>
			<path d="M311.25,8.52L120.63,197.09c-40.53,40.11-40.85,51.43,0.44,91.4L311.47,96.87C351.52,57.27,350.53,47.31,311.25,8.52z"/>
			<path d="M235.26,300.17l15.3-15.24l60.48-60.33c41.93-42.02,40.8-52.15,0.09-92.3l-81.33,81.11l-45.63,45.49
				c-39.93,39.07-42.06,50.05-0.99,91.21l18.21,17.7c40.42,39.36,52.52,38.85,92.62-0.96l-43.38-42.25l-15.36-15.19l-4.66-4.61
				L235.26,300.17z"/>
			<path d="M376.93,193.17L264.49,305.16l46.04,45.34l66.69-66.5C417.71,244.03,417.07,232.76,376.93,193.17z"/>
		</g>
		<g>
			<polygon class="st0" points="89.46,504.07 156.92,504.07 156.92,490.2 103.39,490.2 103.39,464.09 149.95,464.09 149.95,450.23 
				103.39,450.23 103.39,426.58 156.92,426.58 156.92,412.72 89.46,412.72 			"/>
			<polygon class="st0" points="226.45,461.63 175.82,412.33 169.79,412.33 168.88,412.33 168.88,412.33 164.51,412.33 
				164.51,504.23 178.42,504.23 178.42,434.15 226.45,481.12 226.45,504.23 240.36,504.23 240.36,412.33 226.45,412.33 			"/>
			<polygon class="st0" points="290.76,452.3 264.17,412.38 247.52,412.38 283.75,466.97 283.75,503.85 297.68,503.85 
				297.68,466.96 333.77,412.38 317.13,412.38 			"/>
			<path class="st0" d="M403.11,430.91c-3.3-5.7-7.84-10.28-13.5-13.6l0,0c-5.68-3.33-11.95-5.03-18.64-5.03s-12.95,1.69-18.64,5.03
				c-5.66,3.33-10.2,7.9-13.5,13.6c-3.31,5.72-4.99,12.04-4.99,18.78v17.37c0,6.74,1.68,13.06,4.99,18.78
				c3.3,5.71,7.84,10.29,13.5,13.6c5.68,3.34,11.95,5.03,18.64,5.03s12.96-1.69,18.64-5.03c5.66-3.32,10.2-7.9,13.5-13.61
				c3.31-5.72,4.99-12.04,4.99-18.78v-17.37C408.09,442.96,406.42,436.64,403.11,430.91z M347.21,467.06v-17.37
				c0-4.39,1.04-8.32,3.17-12.01c2.14-3.71,4.98-6.56,8.67-8.73c3.66-2.15,7.56-3.2,11.92-3.2c4.35,0,8.25,1.05,11.92,3.2
				c3.69,2.17,6.52,5.03,8.67,8.73c2.14,3.69,3.17,7.62,3.17,12.01v17.37c0,4.39-1.04,8.32-3.17,12.01
				c-2.15,3.72-4.99,6.57-8.66,8.73c-3.67,2.15-7.57,3.2-11.92,3.2c-4.36,0-8.25-1.05-11.92-3.2c-3.68-2.16-6.52-5.02-8.66-8.73v0
				C348.25,475.38,347.21,471.45,347.21,467.06z"/>
		</g>
	</g>
</svg>
