<svg xmlns="http://www.w3.org/2000/svg" viewBox="0 0 322.41 396.58">
	<g fill="currentColor">
		<path d="M224.68,0,31.16,192.69c-41.15,41-41.46,52.54.58,93.27L225,90.14C265.7,49.67,264.68,39.5,224.68,0Z" transform="translate(-0.25 0.02)"/>
		<path d="M147.84,297.73l15.53-15.57,61.4-61.65c42.57-42.95,41.41-53.28,0-94.2l-82.57,82.9L95.85,255.69c-40.54,39.93-42.69,51.14-.87,93.09l18.53,18c41.15,40.12,53.45,39.58,94.15-1.11L163.5,322.64l-15.63-15.48-4.75-4.7Z" transform="translate(-0.25 0.02)"/>
		<path d="M291.71,188.33,177.56,302.78,224.43,349l67.71-68C333.25,240.18,332.58,228.67,291.71,188.33Z" transform="translate(-0.25 0.02)"/>
	</g>
</svg>