<?xml version="1.0" encoding="utf-8"?>
<svg version="1.1" xmlns="http://www.w3.org/2000/svg" xmlns:xlink="http://www.w3.org/1999/xlink" viewBox="0 0 512 512">
	<g>
		<path d="M326.94,9.53L88.29,245.62c-50.75,50.22-51.14,64.39,0.55,114.42l238.37-239.9C377.36,70.57,376.12,58.09,326.94,9.53z" fill="currentColor"/>
		<path d="M231.8,374.68l19.16-19.08l75.72-75.53c52.5-52.61,51.09-65.29,0.11-115.56L224.98,266.07l-57.13,56.95
			c-49.99,48.91-52.66,62.66-1.23,114.19l22.8,22.16c50.61,49.28,65.75,48.64,115.95-1.21l-54.31-52.9l-19.23-19.01l-5.84-5.77
			L231.8,374.68z" fill="currentColor"/>
		<path d="M409.17,240.72L268.4,380.92l57.64,56.77l83.49-83.26C460.23,304.39,459.42,290.28,409.17,240.72z" fill="currentColor"/>
	</g>
</svg>
