<?xml version="1.0" encoding="utf-8"?>
<svg version="1.1" xmlns="http://www.w3.org/2000/svg" xmlns:xlink="http://www.w3.org/1999/xlink" viewBox="0 0 500 100">
	<path d="M80.75,9.81l77.5,0.06l-0.01,10.88L97.12,20.7l-0.04,55.79l61.19,0.05v0c0,6.16-5,11.15-11.16,11.14
		l-66.42-0.05L80.75,9.81z M112.2,43.61c10.38,0.01,20.22,0.02,30.67,0.02l0.04,10.78l-30.65-0.07c0,3.99-0.01,7.12-0.01,10.65
		c15.59,0.01,30.59,0.02,46.28,0.04l0.02-32.23c-15.59-0.01-30.58-0.02-46.35-0.04C112.21,36.6,112.2,39.52,112.2,43.61z
		M250.14,87.34c0.02-26.18,0.04-51.12,0.06-77.1l-10.67,0c-0.02,22.32-0.03,43.73-0.05,65.6c-11.27-0.01-21.84-0.02-33.72-0.03
		c0.01-14.88,0.18-28.8,0.2-43.66l-10.51,0.09c-0.01,18.44-0.03,36.27-0.04,55.06C214.06,87.32,232.13,87.33,250.14,87.34z
		M184.26,21.57l32.9,0.03l-0.02,31.98c0,6.17,4.99,11.17,11.16,11.17l0,0l0.04-54.38l-54.86-0.04l-0.06,77.06l10.79,0.01
		L184.26,21.57z M327.95,10.24c0,0-0.22,49.75-0.24,66.53l-51.84-0.04c-5.97,0-10.81,4.83-10.81,10.8v0l78.06,0.06l0.06-77.34
		L327.95,10.24z M265.06,65.01c15.72,0.01,30.73,0.02,45.88,0.04c0-3.7,0.01-6.83,0.01-10.73c-10.38-0.01-19.98-0.02-31.11-0.02
		c0.01-15.17,0.02-29.61,0.03-44.09c-5.66,0-9.76-0.01-14.77-0.01C265.09,29.03,265.08,46.81,265.06,65.01z M310.85,10.44
		c-5.45,0-9.86-0.01-14.52-0.01c-0.01,11.16-0.02,21.7-0.03,32.69c4.83,0,8.93,0.01,14.52,0.01
		C310.83,31.83,310.84,21.07,310.85,10.44z M434.75,87.9c0.02-26.33,0.04-51.89,0.06-77.82c-25.88-0.02-51.04-0.04-76.72-0.06
		c-0.02,26.15-0.04,51.72-0.06,77.82C384.34,87.86,409.53,87.88,434.75,87.9z M374.03,76.6c0.01-18.3,0.03-36.52,0.04-55.35
		c14.73,0.01,29.46,0.02,44.98,0.03c-0.01,18.5-0.03,36.49-0.04,55.35C403.42,76.63,389.26,76.61,374.03,76.6z M402.96,51.73
		l0.01-19.27l-13.92-0.13l-0.03,33.31h0C396.71,65.65,402.95,59.42,402.96,51.73z" fill="currentColor"/>
</svg>
