<svg xmlns="http://www.w3.org/2000/svg" viewBox="0 0 208.65 103.69">
  <g fill="currentColor">
    <path d="M-.44,0,44,.06V6.27l-35,0L8.91,38l35.09,0h0a6.38,6.38,0,0,1-6.4,6.35l-38.09,0Zm18,19.28,17.59,0,0,6.14-17.58,0v6.07l26.53,0,0-18.37-26.57,0ZM95.74,44.17,95.79,0H89.68l0,37.57-19.32,0c0-8.53.12-16.5.12-25l-6,0,0,31.53ZM58,6.48l18.85,0,0,18.32a6.38,6.38,0,0,0,6.38,6.4h0l0-31.15L51.84,0l0,44.14H58Zm82-6.44s-.14,28.39-.15,38l-29.58,0a6.16,6.16,0,0,0-6.17,6.16h0l44.54,0L148.74.05ZM104.16,31.28l26.18,0V25.19l-17.76,0,0-25.16h-8.43ZM130.29.15H122l0,18.65h8.28Zm70.13,44.09c0-14.94,0-29.43,0-44.14l-44,0-.05,44.13Zm-34.81-6.42,0-31.39,25.78,0,0,31.39Zm16.59-14.1V12.79l-8-.07,0,18.88h0A7.93,7.93,0,0,0,182.2,23.72Z" transform="translate(0.49)"/>
    <path d="M104.17,51.82l44.48,0V58l-35.08,0,0,31.65,35.12,0h0A6.35,6.35,0,0,1,142.24,96l-38.12,0Zm18,19.18,17.6,0,0,6.12-17.59,0v6l26.56,0,0-18.27-26.6,0Zm78.17,25,.05-44.16h-6.11l0,37.58-19.32,0c0-8.53.11-16.5.12-25l-6,0L169,96ZM162.67,58.3l18.85,0,0,18.32a6.39,6.39,0,0,0,6.38,6.4h0l0-31.15-31.43,0,0,44.14h6.18ZM35.44,51.86s-.14,28.39-.15,38l-29.58,0A6.16,6.16,0,0,0-.46,96h0l44.54,0,.05-44.13ZM-.45,83.1l26.18,0V77H8L8,51.83H-.42ZM25.68,52H17.4l0,18.65h8.28ZM95.77,96.05c0-14.93,0-29.42,0-44.13l-43.94-.05L51.83,96ZM61,89.64l0-31.39,25.76,0,0,31.39Zm16.57-14.1V64.61l-8-.07,0,18.88h0A7.92,7.92,0,0,0,77.57,75.54Z" transform="translate(0.49)"/>
  </g>
</svg>