<?xml version="1.0" encoding="utf-8"?>
<svg version="1.1" xmlns="http://www.w3.org/2000/svg" xmlns:xlink="http://www.w3.org/1999/xlink" viewBox="0 0 512 108.42">
	<path class="st0" d="M-0.19,0L107.7,0.08l-0.01,15.15L22.6,15.16l-0.06,77.68l85.19,0.07v0c-0.01,8.57-6.96,15.52-15.53,15.51
		l-92.47-0.07L-0.19,0z M43.6,47.07c14.44,0.01,28.16,0.02,42.7,0.03l0.06,15.01l-42.68-0.09c0,5.56-0.01,9.91-0.01,14.83
		c21.71,0.02,42.58,0.03,64.43,0.05l0.03-44.86C86.42,32.01,65.56,32,43.61,31.98C43.6,37.3,43.6,41.37,43.6,47.07z M235.18,108.2
		c0.03-36.82,0.06-71.89,0.08-108.42l-15.01,0c-0.02,31.39-0.05,61.51-0.07,92.25c-15.84-0.01-30.72-0.02-47.42-0.04
		c0.02-20.93,0.26-40.5,0.28-61.41l-14.77,0.12c-0.02,25.93-0.04,51.01-0.06,77.44C184.43,108.16,209.84,108.18,235.18,108.2z
		M142.53,15.7l46.27,0.04l-0.03,44.97c-0.01,8.67,7.02,15.71,15.69,15.71h0l0.06-76.47l-77.15-0.06l-0.08,108.38l15.18,0.01
		L142.53,15.7z M344.21-0.24c0,0-0.31,69.8-0.33,93.35l-72.73-0.06c-8.37-0.01-15.17,6.78-15.17,15.15v0l109.53,0.08l0.08-108.51
		L344.21-0.24z M255.99,76.6c22.06,0.02,43.12,0.03,64.37,0.05c0-5.2,0.01-9.59,0.01-15.05c-14.56-0.01-28.03-0.02-43.65-0.03
		c0.02-21.29,0.03-41.54,0.05-61.86c-7.95-0.01-13.69-0.01-20.72-0.02C256.02,26.12,256.01,51.08,255.99,76.6z M320.22,0.04
		c-7.64-0.01-13.83-0.01-20.37-0.02c-0.01,15.66-0.02,30.44-0.04,45.86c6.78,0.01,12.53,0.01,20.37,0.02
		C320.2,30.06,320.21,14.97,320.22,0.04z M493.64,108.25c0.03-36.66,0.06-72.25,0.08-108.36C457.7-0.14,422.66-0.16,386.9-0.19
		c-0.03,36.41-0.06,72.02-0.08,108.36C423.46,108.2,458.53,108.22,493.64,108.25z M409.1,92.52c0.02-25.48,0.04-50.84,0.06-77.07
		c20.5,0.02,41.02,0.03,62.62,0.05c-0.02,25.76-0.04,50.81-0.06,77.07C450.02,92.55,430.31,92.53,409.1,92.52z M449.39,57.88
		l0.02-26.83l-19.39-0.17l-0.04,46.37h0C440.69,77.26,449.38,68.59,449.39,57.88z" fill="currentColor"/>
</svg>
