<?xml version="1.0" encoding="utf-8"?>
<svg version="1.1" id="Layer_1" xmlns="http://www.w3.org/2000/svg" xmlns:xlink="http://www.w3.org/1999/xlink" x="0px" y="0px"
	 viewBox="0 0 512 512" style="enable-background:new 0 0 512 512;" xml:space="preserve">
<style type="text/css">
	.st0{fill:#1D1D1B;}
</style>
<g>
	<g>
		<polygon class="st0" points="22.6,320.38 122.39,320.38 122.39,299.87 43.21,299.87 43.21,261.24 112.07,261.24 112.07,240.73 
			43.21,240.73 43.21,205.76 122.39,205.76 122.39,185.25 22.6,185.25 		"/>
	</g>
	<g>
		<polygon class="st0" points="225.23,257.61 150.34,184.69 141.42,184.69 140.07,184.69 140.07,184.69 133.61,184.69 
			133.61,320.62 154.19,320.62 154.19,216.96 225.23,286.43 225.23,320.62 245.81,320.62 245.81,184.69 225.23,184.69 		"/>
	</g>
	<g>
		<polygon class="st0" points="320.35,243.81 281.02,184.75 256.39,184.75 309.99,265.5 309.99,320.06 330.59,320.06 330.59,265.49 
			383.98,184.75 359.36,184.75 		"/>
	</g>
	<g>
		<path class="st0" d="M486.54,212.16c-4.88-8.43-11.6-15.2-19.97-20.12l-0.01,0c-8.41-4.93-17.68-7.43-27.57-7.43
			s-19.16,2.5-27.57,7.44c-8.37,4.92-15.08,11.69-19.97,20.12c-4.9,8.46-7.38,17.81-7.38,27.78v25.7c0,9.98,2.48,19.32,7.38,27.77
			c4.88,8.44,11.6,15.21,19.97,20.12c8.4,4.94,17.68,7.44,27.57,7.44s19.17-2.5,27.57-7.44c8.37-4.91,15.09-11.68,19.97-20.13
			c4.9-8.46,7.38-17.81,7.38-27.78v-25.7C493.92,229.98,491.44,220.63,486.54,212.16z M403.86,265.64v-25.7
			c0-6.49,1.54-12.3,4.7-17.77c3.17-5.48,7.36-9.71,12.82-12.92c5.42-3.18,11.18-4.73,17.63-4.73c6.44,0,12.21,1.55,17.63,4.73
			c5.45,3.21,9.65,7.44,12.82,12.92c3.16,5.47,4.69,11.28,4.69,17.77v25.7c0,6.49-1.54,12.3-4.69,17.76
			c-3.18,5.5-7.37,9.72-12.81,12.92c-5.43,3.18-11.2,4.73-17.64,4.73c-6.44,0-12.21-1.55-17.63-4.73
			c-5.45-3.2-9.64-7.42-12.82-12.91v0C405.39,277.94,403.86,272.13,403.86,265.64z"/>
	</g>
</g>
</svg>
