<svg xmlns="http://www.w3.org/2000/svg" viewBox="0 0 322.43 92.28">
	<g fill="currentColor">
		<polygon points="0 92.28 68.33 92.28 68.33 78.29 14.11 78.29 14.11 51.94 61.26 51.94 61.26 37.94 14.11 37.94 14.11 14.08 68.33 14.08 68.33 0.09 0 0.09 0 92.28"/>
		<polygon points="139.39 49.55 88.43 0.09 82.36 0.09 81.44 0.09 81.44 0.09 77.04 0.09 77.04 92.28 91.05 92.28 91.05 21.98 139.39 69.09 139.39 92.28 153.4 92.28 153.4 0.09 139.39 0.09 139.39 49.55"/>
		<polygon points="204.87 40.28 177.96 0 161.11 0 197.78 55.07 197.78 92.28 211.87 92.28 211.87 55.07 248.4 0 231.56 0 204.87 40.28"/>
		<path d="M317.41,204.06a37.36,37.36,0,0,0-13.57-13.61h0a37.49,37.49,0,0,0-37.48,0,37.44,37.44,0,0,0-13.57,13.61,36.83,36.83,0,0,0-5,18.78v17.37a36.81,36.81,0,0,0,5,18.78,37.34,37.34,0,0,0,13.57,13.6,37.42,37.42,0,0,0,37.48,0A37.26,37.26,0,0,0,317.41,259a36.84,36.84,0,0,0,5-18.78V222.84A36.87,36.87,0,0,0,317.41,204.06Zm-56.19,36.15V222.84a23.22,23.22,0,0,1,3.19-12,23.54,23.54,0,0,1,8.71-8.73,24.06,24.06,0,0,1,24,0,23.64,23.64,0,0,1,8.71,8.74,23.22,23.22,0,0,1,3.19,12v17.37a23.31,23.31,0,0,1-3.18,12,23.76,23.76,0,0,1-8.71,8.73,24,24,0,0,1-24,0,23.54,23.54,0,0,1-8.71-8.73h0A23.22,23.22,0,0,1,261.22,240.21Z" transform="translate(0 -185.34)"/>
	</g>
</svg>