<svg xmlns="http://www.w3.org/2000/svg" viewBox="0 0 32.41 162.35">
  <path d="M311,277.25a3.18,3.18,0,0,1-3.18-3.18v-6.36a3.18,3.18,0,0,1,6.36,0v6.36A3.18,3.18,0,0,1,311,277.25Z" transform="translate(-296.23 -264.53)"/>
  <path d="M311,354a3.18,3.18,0,0,1-3.18-3.18V338a3.18,3.18,0,1,1,6.36,0v12.78A3.18,3.18,0,0,1,311,354Zm0-25.57a3.18,3.18,0,0,1-3.18-3.18V312.42a3.18,3.18,0,0,1,6.36,0V325.2A3.18,3.18,0,0,1,311,328.38Zm0-25.57a3.18,3.18,0,0,1-3.18-3.18V286.85a3.18,3.18,0,1,1,6.36,0v12.78A3.18,3.18,0,0,1,311,302.81Z" transform="translate(-296.23 -264.53)"/>
  <path d="M311,373.09a3.18,3.18,0,0,1-3.18-3.18v-6.36a3.18,3.18,0,0,1,6.36,0v6.36A3.18,3.18,0,0,1,311,373.09Z" transform="translate(-296.23 -264.53)"/>
  <polygon points="14.73 162.35 32.41 117.17 0 117.17 14.73 162.35"/>
</svg>