<svg id="Layer_1" data-name="Layer 1" xmlns="http://www.w3.org/2000/svg" viewBox="0 0 1654.9 807.53"><defs><style>.cls-1{fill:#231f20;stroke:#fff;stroke-miterlimit:10;stroke-width:0.5px;}.cls-2{opacity:0.38;}</style></defs><path class="cls-1" d="M1119.43,354.26c-11.36,2.84,53.29-29.89,92.93-27.94s94.22,26.64,109.17,29.89,40.28,3.25,40.28,3.25-11,16.89,2,25.34,13,13.65,13,16.25,12.35,25.34-26.64,17.54-33.14,3.9-33.14,3.9-5.85-14.95-19.5-24.69-33.14-28.6-58.48-28.6-47.44,7.15-60.43,1.95-41-13-46.15-12.35S1124.63,353,1119.43,354.26Z" transform="translate(-844.99 -178.39)"/><path class="cls-1" d="M1131.13,354.91s36.39,12.35,53.28,13,42.89-3.9,49.39-5.2,20.14-7.8,39,2.6,53.28,27.94,52,34.44-9.74,7.79,5.85,8.44,52,10.4,38.34-3.89-10.39-18.2-17.54-22.1-50-7.15-59.79-14.29-40.28-21.45-48.08-20.8-27.3,4.55-20.8-2.6,22.1-10.4,4.55-9.1-55.88,12.35-64.33,12.35S1126.58,351,1131.13,354.91Z" transform="translate(-844.99 -178.39)"/><path class="cls-1" d="M1356,362.06s-3.9,5.85-3.25,7.79-1.3-.65-11-2.59-26,2.59-35.74-1.95-46.79-20.8-54.58-22.1S1236.4,340,1241,338s21.44,0,27.94,3.25,29.24,13.65,40.29,16.25S1356,362.06,1356,362.06Z" transform="translate(-844.99 -178.39)"/><path class="cls-1" d="M1318.93,380.25c8.46,1.88,29.89,4.55,32.49,9.75s9.1,16.24,6.5,16.24-29.9,0-29.9-2.59,7.15-9.1,0-13S1313.08,379,1318.93,380.25Z" transform="translate(-844.99 -178.39)"/><path class="cls-1" d="M1179.86,356.21c13.65,0,39.64.65,46.79,0s14.3-3.25,2.6-3.9-14.94-2.6-14.94-2.6,11-9.75,1.3-5.85S1179.86,356.21,1179.86,356.21Z" transform="translate(-844.99 -178.39)"/><path class="cls-1" d="M1124,351c5.85-.65,25.34-2.6,30.54-5.85s27.29-11.7,24-3.9-20.15,11.05-22.75,11.7-13,.65-3.25,4.55,31.19,8.45,15.6,7.15-22.73-8.44-29.24-7.15a57.57,57.57,0,0,1-9.75,1.3l-11.82-3.66Z" transform="translate(-844.99 -178.39)"/><path class="cls-1" d="M1654.24,346.58s40.13-26.4,63.68-31.22,49.77-5.53,71.53,1.43,62.07,45.66,62.07,45.66L1861,346.4s-17.49-15-32.83-25.15-40.84-24.08-72.59-23.91-48,4.46-63.51,9.64-51.37,28.89-51.37,28.89S1652.1,345.33,1654.24,346.58Z" transform="translate(-844.99 -178.39)"/><path class="cls-1" d="M1766.61,347.82l-20.51,1.61-9.1-20s-11.77-13.91-32.82-9.27c0,0,13.56-7.85,36.57-8s22.65-.71,43.52,3.21S1850.45,361,1850.45,361l-3.39,4.46s-30.14-23-42.27-28.54-45.49-11.41-45.49-11.41Z" transform="translate(-844.99 -178.39)"/><path class="cls-1" d="M1728.09,317.14s42.81.18,47.62,2.5,17.48,13.56,17.48,13.56a55.85,55.85,0,0,1,11.6,3.74c5.17,2.5,42.27,28.54,42.27,28.54l3.39-4.46s-21.94-19.62-40.31-33-37.28-15.88-52.8-15.88a233.39,233.39,0,0,0-30,1.43C1716.13,314.65,1728.09,317.14,1728.09,317.14Z" transform="translate(-844.99 -178.39)"/><path class="cls-1" d="M1839.93,379s-18.38-14.63-27.83-19.09-35.85-12.13-45.49-12.13-22.83,2.15-22.83,2.15l-9.27,4.81s.18,19.62,4.63,26.4c2.35,3.56,14.15,13.92,24.82,22.95,9.64,8.16,18.35,15.22,18.35,15.22s7-10.77,25.26-12.34l19.16-15.66Z" transform="translate(-844.99 -178.39)"/><path class="cls-1" d="M1644.21,333.05s-18.29-3.76-27.43-5.38-60.26,2.15-60.26,2.15,6.46-12.37,13.45-16.67.54-9.69-2.15-10.22-6.45-.54-5.92-2.16,13.45-42,58.64-72.09,63-33.89,63-33.89l32.81,33.36s19.37,3.22,3.23-12.91-30.66-23.68-30.66-23.68,49-13.44,76.93-12.91,59.71,9.69,67.78,14S1816.9,240,1816.9,240s18.3-40.35,34.43-39.27S1910,230.3,1910,230.3s-39.81,19.37-56,34.43,1.08,8.07,1.08,8.07l73.17-34.43s-.54,14.52,7.53,22.06a126.31,126.31,0,0,0,17.75,13.44s-5.38,1.62-9.68,2.69,2.15,8.61,2.15,8.61l3.76,3.77s9.15,46.8,30.13,48.95,17.75-3.76,17.75-3.76-17.75,12.37-20.44,35-4.84,19.9-4.84,19.9-11.3-26.9-20.44-29.05,24.74,40.89,25.82,43.58,2.69,33.35,3.23,35.5-25.29-24.21-33.36-36.58,30.67,41.43,30.67,41.43,4.3,27.43,21,42.5c0,0-29.59-36.05-41.43-45.19a301,301,0,0,1-24.2-21.52l-1.62,2.15s70.48,77.47,74.24,81.77,14.53,14,14.53,14-14.53-12.38-33.36-18.29a266.88,266.88,0,0,0-39.27-8.61s76.93,47.34,82.31,50,10.22,17.75,10.22,17.75-59.71-24.74-85-30.12-18.29,3.23-7,7,49.49,27.44,49.49,27.44-33.89-7-52.72-11.84-20.44,2.15-33.35-4.3-49.5-11.3-50-30.13,15.61-28,15.61-28,8.07-66.17,7.53-75.32,0-7.53,0-7.53-19.37-54.34-30.13-65.1-48.42-34.43-58.1-37.12-35-7-46.27-6.45S1698,302.39,1684,308.84,1644.21,333.05,1644.21,333.05Z" transform="translate(-844.99 -178.39)"/><path class="cls-1" d="M1877.7,488.53s-8.61,9.68-11.3-3.77-1.62-67.78-1.62-67.78l15.61-22.06s5.91,12.91,5.38,21-5.92,61.87-5.92,61.87Z" transform="translate(-844.99 -178.39)"/><path class="cls-1" d="M1782.47,475.08s33.36,30.66,42,35,19.36,11.29,19.36,11.29,7.53-8.6,6.46-22.59-4.31-24.21-2.15-28.51,16.67-5.92,16.67-5.92l.54-30.13A42.54,42.54,0,0,1,1853,431s-5.46,8.66-9.46,9.17-9.91,16.66-9.91,16.66l-44.11,9.68Z" transform="translate(-844.99 -178.39)"/><path class="cls-1" d="M1833.17,417.07l10.32,23.06,6.23-4.32L1853,431s3.23,2.16,12.37,3.23,13.45-1.61,9.69-3.23-13.45-5.38-13.45-5.38l12.37-4.3-1.08-4.84,7.54-4.84.53-4.84,5.92-2.69s7.53.53,6.46-1.62-1.62-6.45-3.77-6.45,1.62-1.62,9.68-4.85,23.14-8.07,23.14-8.07,5.38-6.45,2.69-8.6-4.84-5.38-1.62-7,45.19-20.44,48.42-22.05-10.76-5.38-16.68-5.38,41.43-15.61,47.35-20.45,3.76-7.53,3.76-7.53l-37.12,3.77s70.48-35.51,76.93-42.5,28.52-31.21,28.52-31.21,8.6-9.14-8.07-1.61-44.66,30.13-53.26,31.2-2.69-1.07,11.29-12.37,37.12-30.13,37.66-37.66,1.62-14,1.62-14-18.3,17.22-32.82,29.05-99.53,65.64-107.6,72.09-40,23.67-40,23.67a365.85,365.85,0,0,1-18.13,39.81,177.27,177.27,0,0,1-28,38.74Z" transform="translate(-844.99 -178.39)"/><path class="cls-1" d="M1789.45,469.83l-18,12.49s-26.22-18-29.79-24.26-3.39-20.69,4.28-31.21,18.91-21.77,18.91-21.77l17.48,14.27s-9.81,7.5-10.17,16.77S1772.32,458.24,1789.45,469.83Z" transform="translate(-844.99 -178.39)"/><path class="cls-1" d="M1739.68,441.83c-.89-.71-35.67-39.24-35.67-39.24l-29.62,26.22L1660,446.47l-4.64-1.79s42.81-69.92,45.31-72.95,23.36-24.8,38.88-36.21l6.6,13.91-4.28,1.43-7.31,3.92s-.54,20.16,5.35,27.65,25,22.65,25,22.65l-16.41,18.38s-5.89,6.77-6.06,9.27S1739.68,441.83,1739.68,441.83Z" transform="translate(-844.99 -178.39)"/><path class="cls-1" d="M1843.8,521.34s10.76,22.06,10.76,23.68-16.14-3.77-30.12-10.23-47.88-16.67-47.88-16.67L1754.5,502l12.37-22.6,4.56,2.94,11-7.24s29,26.36,36.59,32.28S1843.8,521.34,1843.8,521.34Z" transform="translate(-844.99 -178.39)"/><path class="cls-1" d="M1618.93,530s66.17-16.68,89.84-18.83A245.69,245.69,0,0,0,1754.5,502l12.37-22.6s-14-10.76-20.44-15.6-7-12.16-6.75-21.95L1704,402.59s-22.68,19.77-27.52,24.07-30.66,49.49-30.66,49.49S1620,528.34,1618.93,530Z" transform="translate(-844.99 -178.39)"/><path class="cls-1" d="M1661.34,520.19c-3.73.82-1.52,5.82.78,8.87,4.12,5.45,12.94,10.58,12.94,11,0,.75,1-.74,1.49,4s.25,32.75.25,32.75,6.7,3.72,8.68,3.72,15.38-8.44,15.38-8.44l-12.34,7.22,5,17,21.72,1.59L1700.7,597s-1.33,8.56,1.15,10.05,7.94,4.22,7.94,4.22,3.22,13.39,3.47,14.38,8.68,6.2,15.38,5.21,33-20.09,33-20.09,22.33-17.12,27.29-28.28c0,0,4-14.14,4.22-19.6s-8.69-23.07-10.17-25.3-29.27-35.47-29.27-35.47-21.09,6.45-31.51,7.44-24.06,2.73-24.8,3C1696.87,512.73,1671.94,517.84,1661.34,520.19Z" transform="translate(-844.99 -178.39)"/><path class="cls-1" d="M1732.08,625.53s-11.11.18-6.45-7,10.94-10.58,12.19-17.4.72-13.8-.18-14.52-4.3,6.28-5.92,6.45-9,6.46-11.11-5.2-3.77-12.55-2.51-17.39,5.73-14.88,6.81-19.91,3-11.29.9-14.34-7.71-9.86-9.33-11.12-6.63-5.2-10-5.56-9.86-1.79-10.4-2.87-.18-3.58-.18-3.58,32.64-4.13,33.17-4.85,24.67-6.11,24.67-6.11,22.5,33.73,23,34.45S1788.39,556,1788.39,557s1.26,13.63.72,14.53-11.3,19.36-14.89,22.59-11.47,7.89-15.42,10.94-20.62,17-20.8,17.75S1732.08,625.53,1732.08,625.53Z" transform="translate(-844.99 -178.39)"/><path class="cls-1" d="M1714,531.75s-29.41,2.86-33,1.79l9.14,1.25,8.07,8.79-1.08,3.77,3.23-.36,10.94-14.53Z" transform="translate(-844.99 -178.39)"/><polygon class="cls-1" points="866.84 353.54 853.21 365.19 852.13 368.96 855.36 368.6 866.84 353.54"/><polygon class="cls-1" points="870.37 353.44 835.63 354.07 836.89 355.15 845.11 356.92 870.37 353.44"/><polygon class="cls-1" points="858.59 428.85 871.32 428.5 868.63 443.74 866.65 440.15 864.8 432.9 858.59 428.85"/><path class="cls-1" d="M1708.23,606.88l12-6.27L1715,598l-14.43-.75s-.29,6,.14,7.26a15.21,15.21,0,0,0,2,3.25Z" transform="translate(-844.99 -178.39)"/><polygon class="cls-1" points="874.62 417.95 847.25 411.99 848.54 417.92 868.76 419.07 874.62 417.95"/><path class="cls-1" d="M1702.12,572.07a3.4,3.4,0,0,1-.16,3.79c-1.44,1.79-8.61,1.18-8.61,1.18l6.28-3.76Z" transform="translate(-844.99 -178.39)"/><path class="cls-1" d="M1711.67,521.43s-12.78.24-15.94.61-16.27,5-18,6.44,2.12,3.55,2.12,3.55,10.74-4.87,12.83-5.3S1711.67,521.43,1711.67,521.43Z" transform="translate(-844.99 -178.39)"/><path class="cls-1" d="M1755.4,571.73s-6.28,9.69-14.71,9.51-17.39-2.51-18.29-3.41-4.3-.36,1.43-12,11.12-21.52,7.72-26.9-2.87-13.27,3.94-8.43,14.53,23.49,16.86,29A50.7,50.7,0,0,1,1755.4,571.73Z" transform="translate(-844.99 -178.39)"/><path class="cls-1" d="M1687.61,549.86c.55,2.82,4.48,16.32,7,16.85s5.2,1.26,5.38,2-6.09,6.45-8.42,7.71-5.38,4.3-6.46,2.87-3.41-.9-2.51-4.85,2.33-22.41,2.33-23.31S1686.53,544.3,1687.61,549.86Z" transform="translate(-844.99 -178.39)"/><path class="cls-1" d="M1753.42,580.16c-.68,1.28-10,11.3-10,14.17s-2.15,9.5-3.05,11.66-8.43,8.6-7.89,10.76,1.26,4.84,4.84,2,11.66-8.25,17.76-13.81,12.73-7.71,13.63-11.3-4-17-5.56-17.93S1757.19,573.17,1753.42,580.16Z" transform="translate(-844.99 -178.39)"/><path class="cls-1" d="M1683.13,433.12s2,9.86,3.94,12.19,12.38,13.63,12.38,14.17-30.85,39.81-35.87,43.75-29.41,19-30.31,19.73-10.4,5.56-10.4,5.56l-2.87-1.08s27.62-44.83,29.59-47.52,23-35.33,24.93-37.84S1683.13,433.12,1683.13,433.12Z" transform="translate(-844.99 -178.39)"/><path class="cls-1" d="M1655.87,503.77c.36-.9,7.35-12.91,8.25-16.86s-2.51-8.6-2.87-10.4,7.35-17,7.71-18.65-1.25-2-2.87-.18-17.39,28.7-17.93,29.41-17.75,29.59-17.75,29.59l-1.44,5.2s8.61-4.3,11.66-7.35S1655.87,503.77,1655.87,503.77Z" transform="translate(-844.99 -178.39)"/><path class="cls-1" d="M1736.57,502.16c-1.8-.54-32.28-.72-25.83-6.1s14.89-9,16.5-13.09,9.69-14.71.18-5.38-9.68,8.25-14.17,7.35-21-6.63-21-6.63,6.1-12.74,9.69-19.73,11.29-17.57,13.09-19.73a65.15,65.15,0,0,1,5.2-5.2s11.3,15.25,13.81,18.12,9.5,13.09,11.11,14.88,18.12,12,18.12,12a38.06,38.06,0,0,1-2.34,4.85c-.53.53-4.12.89-8.42,4.48s-10.23,9.32-10.23,9.32Z" transform="translate(-844.99 -178.39)"/><path class="cls-1" d="M1755.11,405.09c.75,1.33,4.47,3-2.8,9.7s-12.68,23-16.22,19.39-3.54-12.74-4.48-16.35,1.87-13.88-2.61-17.68S1713,388,1712.41,387s-2.8-2.28,2-5.89,6.53-5.33,8-2.86,15.85,16.74,17.9,18.07S1755.11,405.09,1755.11,405.09Z" transform="translate(-844.99 -178.39)"/><path class="cls-1" d="M1713.43,373.4c1.7,0,5.74-.72,4.31,2s-11.12,7.71-12.2,10.76-13.09,14.53-14.52,16.32-9.33,10.58-8.07,8.43,14.7-19.55,16.5-21.88S1711.1,373.4,1713.43,373.4Z" transform="translate(-844.99 -178.39)"/><path class="cls-1" d="M1792.87,375.73c5.56,0,22.42-.72,26.37,6.28s5.73,8.25,2.69,10.22-7.54,9.68-11.66,9.68-8.07-1.79-11.12-1.25a94.08,94.08,0,0,0-13.27,4.48c-.9.54-6.28,4.13-6.28,4.13s-8.42-7-10-8.61S1764.9,393,1768,391s12-11.47,14.7-12.37S1792.87,375.73,1792.87,375.73Z" transform="translate(-844.99 -178.39)"/><path class="cls-1" d="M1776.38,377.35c-2-2.23-15.6-7.36-24.57-6.1s-12,5.2-12,5.2-4.12-16.68-3.58-19.37,1.07-5.74,11.47-6.45,17.94-4.85,35.33,0,25.47,7,35.51,13.09A231,231,0,0,1,1839.93,379l-9.58,8.71-20.08,16.67s-8.25.9-11.48,1.62-17.75,7.35-19.9,9.14-1.62.54-1.62.54l-15.6-13.27s5.92-10.58,8.25-13.81S1781.76,383.26,1776.38,377.35Z" transform="translate(-844.99 -178.39)"/><path class="cls-1" d="M1721.68,302.75c6,.31,18.65,3.22,21.34,3.94s10,2.15,7.89,3.23-17.39,1.43-20.62,1.79-24.39,5.74-38.2,12.91-37.85,22-37.85,22l-13.56-10.71s31.33-20,39.22-24.16S1714.69,302.39,1721.68,302.75Z" transform="translate(-844.99 -178.39)"/><path class="cls-1" d="M1785.88,315.3c1.26,0,14,.72,18.11,2.87s11.48,5,11.48,4.48-5.74-6.63-15.78-10.76-17.75-8.25-25.47-9.5-17.21-4.66-11.29-4.31,30.3,2.69,40.52,8.43,49.86,32.64,49.86,32.64l6.09,7.71-7.88,15.59-23.14-20.61s-28.87-21-34.61-23.31S1785.88,315.3,1785.88,315.3Z" transform="translate(-844.99 -178.39)"/><path class="cls-1" d="M1829.1,473.64c7.89,10.94,11.65,17.4,12.37,18.83s2.33,16.5,2.33,16.5l-5.38,10.58s-21-13.09-21.52-13.81-9.14-9.5-8.42-10,7.53-3.59,8.42-5.38a3.63,3.63,0,0,0-2-5.2c-2.51-1.08-16.5-10.94-16.5-10.94s19.37.9,25.11-2.87l5.74-3.76Z" transform="translate(-844.99 -178.39)"/><path class="cls-1" d="M1795.21,475.26c2.35.84,19.36,12,19.72,12.73s2,3.05,2,3.05l-8.78,5.56-9.15-6.82-2.15-2.87-.54-3.58-3.23-3.41-2.87-2S1790.18,473.46,1795.21,475.26Z" transform="translate(-844.99 -178.39)"/><path class="cls-1" d="M1837.17,459.3S1846,453,1850.44,452s5.92-3.59,5.92-4.49-.72-5.2-.9-7,2.33-7,2.33-7L1853,431s-5.74,7-8.61,9.51c0,0-2.15,11.48-3.76,14S1837.17,459.3,1837.17,459.3Z" transform="translate(-844.99 -178.39)"/><path class="cls-1" d="M1848.11,483c-.54.18-5.56.72-6.28,1.25a17.92,17.92,0,0,0-2.15,2.51l-.72,2.16,2.69,4.3L1843.8,509l-4.84,9,4.84,3.4,6.82-15.6Z" transform="translate(-844.99 -178.39)"/><path class="cls-1" d="M1772.07,445.67l-15,9.12-10.59,9a21.62,21.62,0,0,1-6.26-16.53c.52-10.55,1.78-15.08,4.88-18.19s4.44-3.1,4.44-3.1l23.3,7.16S1768.53,439.9,1772.07,445.67Z" transform="translate(-844.99 -178.39)"/><path class="cls-1" d="M1771,473.35c-.65-.21-16.33-14.17-12.46-15.89a122.92,122.92,0,0,0,10.74-6s6.23,10.95,9,13.74,6,5.37,6,5.37.43,1.29-1.72,3.65-8.37,5.8-8.37,5.8Z" transform="translate(-844.99 -178.39)"/><path class="cls-1" d="M1771.24,425.89c-1.29-1.29-11.38-5.59-11.38-7.31s.43-5.37,3.86-4.94,11.17,7.09,11.17,7.09Z" transform="translate(-844.99 -178.39)"/><path class="cls-1" d="M1742.24,494c-.85-1.5-14.39-5.58-11-9.23s4.3-7.95,8.59-6.88,8.59,5.37,9.24,3.87-3.87-8.59-.65-8.38,11.82,4.3,11.6,6-2.15,3.22-4.08,4.51-7.52,3.22-9.45,6.23A9.71,9.71,0,0,1,1742.24,494Z" transform="translate(-844.99 -178.39)"/><path class="cls-1" d="M1718,510.45s22.77,11.6,24.49,13.53,10.09,24.7,10.74,31.15,10.74,33.07,16.32,36.73,19.12,10.31,21,12.67-5.37,23,12.24,32,20.94,2.05,31.05,22.83c13.18,27.1,21.91-3.6,30-8.18,5.79-3.28,34.59,6.81,40.63,6.06,4.19-.52-2.91-25.55.61-25.47,4.22.1,10.46,30.26,13,31.23,5,1.88,49.15,15.16,56.4,20,4.71,3.15-42.15-31.89-37.3-29.11,5.67,3.23,21.15,10.4,26.08,11.22,5.93,1,46.46,23.85,53.38,16.67,8.18-8.49-20.24-31.65-16.38-31.53,12.08.37,15.67,14.55,18.2,14.55,5.37,0,24.4,2.43,37.07,9.08,0,0-5.36-7.51,10.1-2.79s12.67,9.88,10.95,14S2096,697.53,2104,709.56s-6.87,18.47-9.23,18.47-15.9,8.59-41.46-5.15,1.29,12.24,23.84,17.18,45.75-11,45.75-20.62-4.72-19.76,1.29-23.2,39.09-4.08,46.18,8.16,39.74,11.82,44.89,11.82,46.82,1.07,76.89-2.37,78.4-41.88,88.71-54.77,13.1-31.57,12.24-40.59-14.39-44-20-53,7.52,26.63,8.16,31.79,14.82,45.32-18.47,62.93-35.66,24.91-79.69,29.85-125.43-14.39-125.43-14.39S2108,655,2107.4,654.36s-16.75-10.1,42.53,6.66,76.67-.22,76.67-.22,12.25-10.31,16.54-18,3.87-40,3.87-40a111.43,111.43,0,0,1-17.4,29.43c-11.6,13.74-26,20.62-36.08,20.83s-27.92-.21-27.92-.21,18.47-15.9,25.13-23.85,7.73-20.4,7.73-20.4-10.74,13.1-23.84,17.4-40.38,2.57-42.53,1.5,7.73-1.29,16.11-12,10.31-13.74,10.31-13.74-25.56,17.39-35.66,17.39-18.47,4.09-6.44-7.51,37.59-21.7,21.91-20.84-28.57,7.52-18.9-1.93,38.87-32,40.81-34.8,21.47-26.41-9.24-9.66-60.57,29-86.77,29,6.44-5.79,19.54-11.16,20.41-11.6,27.06-14.82,17.19-7.52,7.74-7.31-13.1.22-16.11,1.08-36.52,16.75-42.31,18.68-31.15,9-44.68,10.31-70-.64-88.92-4.08-52.84-9-58.85-12.24a104.5,104.5,0,0,1-12.69-8.46s-19.53-4-31.13-10.23-35.44-12.45-35.44-12.45L1777,518.49l-22-16.14S1724.43,510.88,1718,510.45Z" transform="translate(-844.99 -178.39)"/><path class="cls-1" d="M1788.12,429c-1.47-3.18-9.31-10.89-4.53-15.67s13.22,9.19,13.22,9.19Z" transform="translate(-844.99 -178.39)"/><path class="cls-1" d="M1799.56,421.3c1.06-3.34.48-14.32,7.22-14.62s3.57,15.7,3.57,15.7Z" transform="translate(-844.99 -178.39)"/><path class="cls-1" d="M1815,422.58c2.78-2.14,8.54-11.5,14.27-7.91s-6,14.94-6,14.94Z" transform="translate(-844.99 -178.39)"/><path class="cls-1" d="M1826.18,431.91c3.49.26,14-2.84,15.89,3.66s-14.45,7.09-14.45,7.09Z" transform="translate(-844.99 -178.39)"/><path class="cls-1" d="M1827.05,446.39c2.23,2.37,11.4,6.85,8.6,12.46s-14.34-4.19-14.34-4.19Z" transform="translate(-844.99 -178.39)"/><path class="cls-1" d="M1817.33,459.42c.43,2.81,4.79,10.59,0,13.23s-8.23-10.14-8.23-10.14Z" transform="translate(-844.99 -178.39)"/><path class="cls-1" d="M1884.69,589.67c-.27,1.34,6.19,14.79-4,13.45s-1.61,7.26-6.72,8.07-8.61.53-14.26-2.16-32-24.47-40.88-30.93-21-23.13-23.14-25.55-20.17-34.7-20.17-34.7l35,11s18.83,8.6,20.44,9.14,9.69,10,18.56,17.49S1884.69,589.67,1884.69,589.67Z" transform="translate(-844.99 -178.39)"/><path class="cls-1" d="M1812.87,578.37s19.1,28.24,25.82,31.2,16.41,5.92,16.14,7.8-7,9.15-11.83,7-19.64-7-10.76-2.16,22.32,6.73,15.87,11.57-13.45,13.18-17.49,11.84-33.89-15.34-33.89-16.14-.81-14.26-1.34-19.91-1.89-22.05.8-23.94,9.42-5.92,9.69-8.61S1809.91,573,1812.87,578.37Z" transform="translate(-844.99 -178.39)"/><path class="cls-1" d="M1799.15,574.07c-.18.78-3,5.91-4.3,7s-8.34,4.3-10.49,3.5-12.65-7.27-16.41-11.3-11.3-14.26-12.38-18.83-2.15-13.45-3.49-16.95-3-14.52-9.69-18.83-8.07-6.18-4.57-7,18.83,1.08,21,4.3,29.32,30.67,32,35.51S1800.76,567.07,1799.15,574.07Z" transform="translate(-844.99 -178.39)"/><path class="cls-1" d="M1783.28,569.76c-4.84-2.69-17.48-8.61-20.17-16.14s-6.19-22-10.22-26.36-6.19-8.61-3-8.07,21.25,10.76,24.47,19.64S1783.28,569.76,1783.28,569.76Z" transform="translate(-844.99 -178.39)"/><path class="cls-1" d="M2091.27,593.43c.54-.8,15.33-7.26,16.14-9.68s-14.52-2.15-17.48-1.08-2.42,1.89,3.76-4.57,18.56-12.91,12.38-12.1-23.14,7.53-32,7.53-7.8.27-25.56-.27-26.9-2.69-31.47-2.15-19.9.8-28.51,3.22-10.49,3.77,4.3,10.23,47.88,16.94,60.53,17.21S2091.27,593.43,2091.27,593.43Z" transform="translate(-844.99 -178.39)"/><path class="cls-1" d="M2070.56,665.25s11-11.83-5.92-16.14-30.66-5.91-32.81-12.91-9.42-10.76,7-5.92,64.29,28.52,78.28,34.17,82.31,24.2,93.07,25,47.34-.54,41.15,5.11-24.75,15.07-38.2,15.34-32,0-35.23-1.89-19.64-14.52-24.75-14.52-25.29-.81-27.44-.27-9.68,5.92-11.56,12.1-3.23,8.07-7.8,4.31-22.33-18.56-25.29-21.25-2.15-6.46-2.15-10.23S2066.26,669.83,2070.56,665.25Z" transform="translate(-844.99 -178.39)"/><path class="cls-1" d="M1973.46,609c14,7,27.16,18.3,29.32,22.33s3.22,15.06-7.27,7.26-35-32.54-35.77-33.62S1973.46,609,1973.46,609Z" transform="translate(-844.99 -178.39)"/><path class="cls-1" d="M1939.83,640.51c7.26,1.07,16.14,6.72,35.78,5.91s-10-29.58-10.49-30.39-15.6-14.53-23.67-18.29,9.68,8.34,14.79,15.33,16.41,15.33,4,16.41a90.15,90.15,0,0,1-20.45-.27Z" transform="translate(-844.99 -178.39)"/><path class="cls-1" d="M1922.08,622c-2.36,2.7-3.5,7.53-7.8-4.85s-19.64-26.09-26.9-32-11.57-7.53-11.84-10,3.5-4.57,5.11-6.18,8.61-5.92-3.49-8.61,27.7,3,33.89,4.57,28.24,12.37,39.27,18.83,50.3,23.67,61.33,26.36,73.44,17.48,86.62,18,48.14-8.61,28.78,1.35-44.92,9.14-52.72,7.26-50.84-14-50.84-14,6.45,4,8.34,10.49,4.84,23.67-3.77,22.87-7.8,3-6.19-3,16.14-11.57-4.57-24.21-43.84-22.33-47.34-23.4-29.59-12.64-37.93-17.22-29.59-16.41-18.29-5.65,31.74,28.79,32.28,33.9-4,13.45-8.61,8.07-8.07-17.76-15.6-24.48-21.79-18.29-18.56-11.57S1927.46,615.76,1922.08,622Z" transform="translate(-844.99 -178.39)"/><path class="cls-1" d="M2202.63,655s-4.57,11-15.6,10.76-16.41.27-25.28-3S2133,654.76,2123.82,651s-14.79-7-18-8.61-11.57-3,2.15-4,39.54-5.91,46.27-6.45,27.7-7.8,27.7-5.92,1.08,7.53-5.38,14-16.14,11.3-15.33,12.1,18,6.46,24.75,6.46S2202.63,655,2202.63,655Z" transform="translate(-844.99 -178.39)"/><path class="cls-1" d="M2261.27,709.37c.36-1,1.89-8.88,20.72-12.65s56.21-14,63.75-21,26.89-19.9,21.78-14.52-16.67,26.63-42.23,36.85-33.62,13.45-49.22,13.72S2259.93,713.13,2261.27,709.37Z" transform="translate(-844.99 -178.39)"/><path class="cls-1" d="M1882.27,594.24c-.27-1.34,2.15-4.84-2.15-7s-10.49-11.84-20.72-14.26-1.34,1.61-.26,4,4.57,8.61-4.31,1.62S1839,566.53,1838.42,569s25.29,27.43,29.32,29.58,8.07,2.42,7.53-2.15-3.49-2.42,1.08-2.42A37.53,37.53,0,0,1,1882.27,594.24Z" transform="translate(-844.99 -178.39)"/><path class="cls-1" d="M1815.56,535.87c2.42,1.61,23.67,18,26.36,22.06s7.8,7.26-3.5,4.84-9.41,7.53-17.21-7.8-20.71-26.36-18.83-26.36S1815.56,535.87,1815.56,535.87Z" transform="translate(-844.99 -178.39)"/><path class="cls-1" d="M1804.53,599.62c.54,1.08,8.07,12.37,12.64,18s3.77,8.07.27,11.84-3.49,3.49-9.68,1.88-8.88-1.08-9.42-3.23-2.15-23.13-.26-30.12,3.76-5.92,4.57-2.69S1804.53,599.62,1804.53,599.62Z" transform="translate(-844.99 -178.39)"/><path class="cls-1" d="M1834.3,415.9c.89,1.82,3.43,15.47,12.64,13.88s11.42-.63,8.25-3.81-10.16-8.89-6.67-8.89,12.7,3.81,13.65,1-6.35-11.43-8.89-12.38-2.54.63,5.4,1.9,17.14,2.54,17.46-.63,11.42-3.81-2.22-5.4-16.19-4.76-16.19-4.76-1.59.63,9.52-.32a82.86,82.86,0,0,0,21.27-5.08s10.47-3.17-4.13-3.49-18.73-2.54-19.68-2.54,7-4.12,17.46-5.08,43.8,0,23.49-3.8-37.77-2.23-28.25-5.4,39-4.44,41.9-7,19.68-12.07-2.54-7.62-35.87,1.9-35.87,1.9,41.9-5.71,44.75-8.57,34.92-20.31,22.54-17.77-35.23,9.84-35.23,9.84-6.67-.95,7-5.72,32.06-15.55,33.33-16.82,12.7-11.74-1-7l-13.65,4.76s7.3-7,0-5.08-16.51,6.67-23.81,11.11-31.1,11.43-31.1,11.43l-8.26,18.09s-10.15,22.22-15.23,28.25-16.51,22.85-16.51,22.85Z" transform="translate(-844.99 -178.39)"/><path class="cls-1" d="M1718.7,313.93s11.11-7-8.57-1.27-55.86,23.17-57.77,25.39l-3.81,4.44,5.69,4.09s36.21-21.55,40-22.82S1718.7,313.93,1718.7,313.93Z" transform="translate(-844.99 -178.39)"/><path class="cls-1" d="M1911.05,429.78c8.35,11.13,35.87,39,47.3,43.49s25.07,5.39,14.6,7.61-18.73,1.91-30.16-6-27.61-32.37-23.17-20.63,20.64,28.57,19.05,30.47-16.19-8.25-25.71-20.63-8.89-18.73-8.89-22.85S1906.29,423.43,1911.05,429.78Z" transform="translate(-844.99 -178.39)"/><path class="cls-1" d="M1913,476.12c.28-5.61,39.36,25.08,48.56,30.79s48.25,22.22,41,23.49-48.25-14-62.85-23.81S1912.64,482.47,1913,476.12Z" transform="translate(-844.99 -178.39)"/><path class="cls-1" d="M1886.93,464.38c5.08,6,14.6,12.7,18.41,19.68s14.6,14.92,10.79,15.55-4.12-4.12-14.92-9.52-16.18-8.89-7,1,28.88,27.93,13.65,18.73-21-19.68-19.05-10.48,4.45,16.83,4.77,18.1,6.66,14.91-6.67-.32-14.92-19.68-14.6-21,1.27-4.13,2.86-5.4,3.17-3.81,3.17-5.71,2.86-23.49,2.86-23.49Z" transform="translate(-844.99 -178.39)"/><path class="cls-1" d="M1905.66,530.4c2.22-.32,28.25-3.49,30.47-1.9s33,15.87,35.55,19,27.3,12.38,11.11,10.16-34.6-8.25-43.49-11.75-10.79-1.58-26-5.39-19.68-6.67-16.19-7.94A66.59,66.59,0,0,1,1905.66,530.4Z" transform="translate(-844.99 -178.39)"/><path class="cls-1" d="M1969.46,522.78c.31,2.22,3.17,8.57-6,5.08s-22.86-5.08-27-4.44-31.74,5.08-33.65,5.08-3.81-6,7.62-10.8,22.85-9.84,28.25-7.93S1969.46,522.78,1969.46,522.78Z" transform="translate(-844.99 -178.39)"/><path class="cls-1" d="M1840.91,326.94c.31-1.27,19.36-8.89,32-20.63s53.65-32.7,24.44-20-47,18.41-53.64,25.08-12.06,8.88-11.42,10.15S1840.91,326.94,1840.91,326.94Z" transform="translate(-844.99 -178.39)"/><path class="cls-1" d="M1803.13,304.09c.32-2.23,15.24-29.21,21.9-39s37.14-41.89,13-25.07-32.38,41.26-37.46,47.29-12.06,9.84-8.88,12.06S1803.13,304.09,1803.13,304.09Z" transform="translate(-844.99 -178.39)"/><path class="cls-1" d="M1781.23,297.74c-.32-1.91-3.81-5.72-14.28-8.57s-9.84,6.66-17.46-10.16-15.24-31.74-16.19-37.45-3.81-15.24-9.84-12.07-9.2,8.89-2.85,17.14,17.45,30.48,17.14,33,4.12,8.26-8.89,8.26-17.78-1.91-23.81-1.27-4.76,9.84-13.33-2.86-14.92-20.95-20.31-28.57-19.68-21.58-22.22-22.53-17.14-11.11-14.92-5.4,37.77,46,42.22,51.42,11.74,14,8.57,14.92-4.45,4.76-9.21-5.71-38.72-53-42.22-54.92-4.76-8.25-7.93-3.49-4.13,9.53,2.86,15.87,41.26,39.68,40.94,49.52,1.91,7.94-3.17,13.33-13.65,11.11-21.59,15.24-5.39,2.54-30.78-1.91-45.08-3.49-47.3-2.22-10.16,6.67-.32,6.67,48.88.31,53.65,1.58,23.17,5.72,23.17,5.72,34-20,34.91-20.63,20.63-11.75,52.38-14.29S1781.23,297.74,1781.23,297.74Z" transform="translate(-844.99 -178.39)"/><path class="cls-1" d="M1820.91,297.42c1.36-1.25,25.71-33,31.42-37.77s33.33-23.81,37.14-25.4,24.44.32,10.16-6.66-33.33-21.9-39.68-21.9-3.49-7-16.51,11.74-26,33.65-19,27.62,20.95-15.24,26.66-15.24,7.62,5.71-.32,13.33-31.1,38.09-33,42.22S1809.48,307.89,1820.91,297.42Z" transform="translate(-844.99 -178.39)"/><path class="cls-1" d="M1881.53,316.15c9.3-1.17,31.43-14.92,35.55-18.41s27-10.79,20-17.78-15.23-16.5-16.82-17.77,1-10.8-12.06-2.54-34.92,16.19-29.84,18.09,10.47,4.76,19.68,1.9,19.68-5.07,18.73-.95S1880,308.85,1878,312,1873.92,317.1,1881.53,316.15Z" transform="translate(-844.99 -178.39)"/><path class="cls-1" d="M1844.71,330.11c1.27,0,52.38-14,57.46-14.6s17.77-5.39,15.23-3.17-34,20.17-34,20.17-9.22-1.13-11.12.14-10.79,11.75-10.79,11.75l-.56,2Z" transform="translate(-844.99 -178.39)"/><path class="cls-1" d="M1963.11,469.14c-3.27-1-19.36-9.21-21.59-16.51s-18.41-20.94-20.94-22.85-16.51-12.7-13.65-13,17.45,1.27,21.26,5.71,26,26,27.3,27.62S1971.36,471.68,1963.11,469.14Z" transform="translate(-844.99 -178.39)"/><path class="cls-1" d="M1973,418.35c-3.49-3.17-12.06-22.53-15.87-26.34s-17.78-19.68-19.68-21.59-4.45-7.3-4.45-7.3l38.89-17.69s-12.85-6.84-14.76-6.11,12.69-5.72,12.69-5.72,7.94,5.4,13,5.72,7.62.32,7.62.32-7.3.63-9.53,9.2-7.61,28.25-7.61,28.25.31,1-7-7.94-8.88-12.37-13.33-11.74-7.3,5.4-4.76,8.57,25.71,33.65,25.71,35.87S1973,418.35,1973,418.35Z" transform="translate(-844.99 -178.39)"/><path class="cls-1" d="M1871.69,279.33c-2.54.95-8.57,9.84-16.82,13.33s-15.87,5.71-16.5,1.59,3.17-8.57,8.25-11.11,27.93-14.92,27.93-11.43S1871.69,279.33,1871.69,279.33Z" transform="translate(-844.99 -178.39)"/><path class="cls-1" d="M1801.23,211.4c1.27,1.59-4.13,58.4-5.08,63.48s-7,13-6,1.59,5.08-48.56,4.76-50.15-5.08-4.13-5.08.63-2.85,28.25-3.17,12.38-6.35-30.15-4.45-18.41,1,18.1-1,14.29-8.89-38.73-8.89-38.73,4.77-1.58,8.57,1,4.77,7.94,7.3,7,2.23-8.57,3.81-8.57,4.76,1,3.81,3.81,3.81-2.86,6.35-1.59S1801.23,211.4,1801.23,211.4Z" transform="translate(-844.99 -178.39)"/><path class="cls-1" d="M1594,282.5c8.25,2.22,43.17,6.67,22.85,7.94s-30.47,1.27-30.47,1.27-1.9,4.76,4.13,7.3,37.77,6.66,42.85,9.2,22.53,6.67,1.9,4.45-54.91-7-56.18-7.62-8.57-2.22-6.35-8.26,8.89-15.87,10.79-18.72,15.56-17.46,12.07-12.38S1594,282.5,1594,282.5Z" transform="translate(-844.99 -178.39)"/><path class="cls-1" d="M1729.81,270.44c2.54,6.67,7,10.16,1.91,10.79s-4.13,1.91-10.48-4.12-17.14-13-21-12.7-4.12,10.47-13,1.59-24.76-28.25-27-31.43-7.94-5.08-2.54-8.57,3.81-8.89,11.74-10.16,18.09-2.85,19.36-3.17,5.4.64,9.84,3.49,21,32.06,21.91,34.28S1729.81,270.44,1729.81,270.44Z" transform="translate(-844.99 -178.39)"/><path class="cls-1" d="M1753.62,220c2.85,3.49,13,35.23,14.6,41.26s6,16.83,6,20.32-6,2.86-10.79,2.22-7,6.35-7.94-3.17,2.54-8.89-.63-22.86-10.48-34.28-13-38.09,3.81-8.88,7-6A21.77,21.77,0,0,1,1753.62,220Z" transform="translate(-844.99 -178.39)"/><path class="cls-1" d="M1727.59,186.64c.34,2.4,3.17,13,3.17,15.56s1.59,4.12-3.17-1.27-11.43-10.8-12.38-10.8-8.89,1-3.81-.63S1727.27,184.42,1727.59,186.64Z" transform="translate(-844.99 -178.39)"/><path class="cls-1" d="M1907.56,393.6c1,1.58,8.25,10.47,8.57,13s0,2.86-5.71,1.9-11.43-2.22-12.7-5.07,3.49-8.26,5.08-8.89A23.21,23.21,0,0,1,1907.56,393.6Z" transform="translate(-844.99 -178.39)"/><path class="cls-1" d="M1892.64,416.45c2.89,6-1.58,17.14-1.58,22.54s-1,25.71-3.18,21.58-2.54-22.85-1.9-25.39S1885,400.58,1892.64,416.45Z" transform="translate(-844.99 -178.39)"/><path class="cls-1" d="M1837.37,412.41c1.59-.63,7.3,1,7.94-2.54a60.84,60.84,0,0,1,2.85-10.47c1-2.22,10.48-16.19,12.7-18.41s9.84-5.4,11.43-5.4-.64-1.9-2.23-3.17,1.59-9.52,2.23-10.48,3.81-6.34,6-7.93,2.22-2.86,2.22-5.4,4.13-5.39,5.4-5.71,3.17-2.54,1.9-3.49a41.62,41.62,0,0,1-4.13-4.45,26.6,26.6,0,0,0-3.49,3.18c-.63.95-9.2,21.58-9.2,21.58l-11.43,20.63-14.28,19.37Z" transform="translate(-844.99 -178.39)"/><path class="cls-1" d="M1787.14,486c0,2.73-4.09,16.37-.34,23.53s13,8.52,3.75,7.16-21.14-7.16-22.84-10.57-5.46-4.77.34-12.62a126,126,0,0,1,14-15.34Z" transform="translate(-844.99 -178.39)"/><path class="cls-1" d="M1817.5,510.92c2.86,5,12.86,23.94,15,25s20,9.64,18.21,6.78-1.43-14.64-7.86-20-21.07-12.15-24.29-13.22S1817.5,510.92,1817.5,510.92Z" transform="translate(-844.99 -178.39)"/><path class="cls-1" d="M1826,507.55c.31-1.91,7.93-21.27,10.15-17.46s4.45,8.25,3.81,13-1.58,12.38-1.58,12.38Z" transform="translate(-844.99 -178.39)"/><path class="cls-1" d="M1753.93,436.76c2.86,1,9.53,2.23,7.3,7.3s-5.07,9.21-9.2,8.57-6.67-6-4.76-9.52S1753.93,436.76,1753.93,436.76Z" transform="translate(-844.99 -178.39)"/><path class="cls-1" d="M1744.09,326.94c-2.12,2.84,8.57,12.06,7.3,13.65s-2.85.63-2.85,2.22-.32,3.49,1,3.81,12.7-.64,12.7-.64l1.58-.31-7.93-20S1747,323.13,1744.09,326.94Z" transform="translate(-844.99 -178.39)"/><path class="cls-1" d="M1790,813.64s-36.59-20.08-41.25-20.8-6.1,1.08-6.1,1.08-1.79,12.19-5.73,15.06-5,6.82-17.94,11.12a139.72,139.72,0,0,0-24.74,11.48s1.07-53.08-.72-61-6.46-36.59-26.9-42-39.09,9.69-39.09,9.69l2.51-11.12,24-25.82-7.18-35.51s37.3-23,59.18-20.8,41.6,5.74,63.84,31.92,25.11,40.17,25.82,61S1795,799.3,1790,813.64Z" transform="translate(-844.99 -178.39)"/><path class="cls-1" d="M1769.56,681.66s-6.45,8.61-7.89,11.48-1.43,8.25-.72,10.4,8.25,5.74,3.23,7.17-17.57,2.15-19.36,1.8-4.67-10.41-8.61-.36a83.85,83.85,0,0,1-10.76,18.65s-14.71-11.48-21.16-10.76-20.8.71-20.8.71,5.38,16.14,6.81,19.73,4.66,9.68,3.59,11.48-4.67,4.3-4.67,4.3l4,8.25,1.08,23,.35,40.89-.35,3.23s14.34-6.46,30.12-13.27,18.29-24.39,18.29-24.39.72-2.15,6.1-1.08,41.25,20.8,41.25,20.8,5.38-21.16,5.73-40.88,2.16-54.16-7.53-71S1769.56,681.66,1769.56,681.66Z" transform="translate(-844.99 -178.39)"/><path class="cls-1" d="M1627.54,738.33h0l-30.49,21.52-2.15,10-15.78,8.25-7.89,5.74-7.89.71s26.9,34.43,38,48.42,22.24,53.8,22.24,53.8l11.48-10,10-15.78,11.48-1.08,27.61-21.52,10-6.81s-.36-50.93-.36-57.39-3.59-20.08-8.61-29.76-17.93-20.45-33.71-17.22-24,11.12-24,11.12Z" transform="translate(-844.99 -178.39)"/><path class="cls-1" d="M1682.05,739.76s-11.83,14.71-16.86,17.22-10,9.32-10,9.32,6.46,7.18,7.53,10.4-11.11-8.6-12.19-8.25-14.35,10.41-14.35,10.41,3.23,6.81,3.59,9-.36,5.38-1.79,4.66-11.48,3.95-12.91,6.82-2.51,5.38-5.74,1.43-2.87-7.89-7.53-4.3-14.71,14.35-14.71,14.35,12.55,19.36,11.84,26.89.71,8.25.71,8.25l14,40.89,11.48-10,10-15.78,11.48-1.08,37.66-28.33-.72-61-4.31-14.35Z" transform="translate(-844.99 -178.39)"/><path class="cls-1" d="M1793.59,738.33A126.11,126.11,0,0,1,1781.4,748c-7.18,5-8.61,9-14,4.31s-17.21-7.18-19.37-9.69-4.3-6.1-5.38-4.66-5.38,12.91-5.38,12.91l-27.61,10.76-19-2.87s-5.38,19.73-7.53,21.52-12.2,5-12.2,6.1v10c0,1.08-8.25,10.4-9.68,11.84s-6.81,2.86-8.25,1.79-7.17-8.25-7.17-7.17-2.87,15.42-2.87,15.42-.36,6.09-9,3.94-16.5-6.45-15.78-3.23,0,22.6-.72,24-5.38,10.05-5.38,10.05l11.48,33.71,11.48-10,10-15.78,11.48-1.08,37.66-28.33s27.61-11.48,32.63-14,13.63-15.78,13.63-17.57,3.23-6.1,4.31-6.82,30.84,11.12,30.84,11.12l14.35,9.32s4.66-22.59,5-36.94S1793.59,738.33,1793.59,738.33Z" transform="translate(-844.99 -178.39)"/><path class="cls-1" d="M1739.79,771c-1.07,0-21.51,21.16-23.67,22.95s-11.83,8.61-12.91,9.68-3.58,7.53-5.38.72-5.74-15.78-6.45-13.63-4,14-5.74,15.78a98.47,98.47,0,0,1-9,7.53c-2.51,1.8-4.3-5.38-6.45,3.23s-4.67,10.76-4.67,10.76l-6.81-3.94s-2.51-.36-4.66,2.86-6.82,15.79-6.82,15.79l-3.23,1.07s-5.73-4.3-6.45-3.23-3.95,6.46-6.1,8.61-7.53,5-8.61,5-7.89,4.66-7.89,4.66l8.61,28,11.48-10,11.12-16.5,10.4-.36,37.66-28.33s16.85-9,24.74-11.48,15.07-6.46,19-12.55a34.35,34.35,0,0,0,4.66-13.63Z" transform="translate(-844.99 -178.39)"/><path class="cls-1" d="M1654.08,701.39s11.11-9.69,24.38-14.71,30.49-4.3,46.63,4,19.37,51.28,18.65,58.82-1.08,44.47-1.08,44.47l-2.87,4.3,1.44-41.6s1.07-15.78-1.44-29.41-7.89-34.79-23-38-17.57-6.09-33-1.79-32.63,18.29-32.63,18.29Z" transform="translate(-844.99 -178.39)"/><path class="cls-1" d="M1665.55,777.42c0,1.08-1.43,8.25-3.58,4.66s-5.38-9.32-15.78-19-20.45-15.07-30.85-14.71l4.66-3.59s5.38-1.79,18.3,4S1665.55,777.42,1665.55,777.42Z" transform="translate(-844.99 -178.39)"/><path class="cls-1" d="M1595.62,764.51s17.57-4.66,25.46-.36,22.24,25.47,22.24,28-11.84-11.84-17.94-17.94-10-6.09-15.42-6.09-15.06,1.79-15.06,1.79Z" transform="translate(-844.99 -178.39)"/><path class="cls-1" d="M1625.38,805.75s8.25,40.53-2.86,7.54-35.15-32.64-35.15-32.64h-11.12l5.38-3.95s13.63-3.94,28.33,8.25S1625.38,805.75,1625.38,805.75Z" transform="translate(-844.99 -178.39)"/><path class="cls-1" d="M1734.41,648.67s12.56-6.46,14-6.1,38,19.72,44.47,22.59,42.33,21.88,48.06,27.26,41.61,32.28,43.4,34.79-1.79,22.95-2.15,31.56-33,40.89-39.45,47.7-35.51,37.66-43.76,42.32-31.56,44.83-37.66,20.09-.71-48.06-2.87-49.5-15.42-16.14-16.14-18.65-1.43-7.17,2.52-7.53,33,12.55,34.07,14,11.12,6.45,11.12,6.45,5.38-31.56,5.73-40.88,2.16-35.15,0-47.7-12.91-36.58-26.54-49.5-26.18-22.95-37.3-25.82Z" transform="translate(-844.99 -178.39)"/><path class="cls-1" d="M1793.59,668.39c1.44,2.15,14.71,24.39,19,37.3s14,25.82,18.29,28.33,11.12-4.3,8.61,7.54-11.48,37.3-16.86,45.9-10,35.15-19,34.79-15.06,3.23-21.87,2.51-4-6.09-14.35-11.12-25.11-12.91-25.11-12.91l16.14,18.65-.71,24.39s4.66,31.56,8.25,31.2,11.11-5.73,15.06-9.32,26.18-24.75,28-26.18,21.88-22.24,23-23.31,30.84-33,32.28-34.79,10.4-11.48,11.83-18.65,1.44-33.72,1.08-35.51-36.23-31.2-40.89-34.79S1793.59,668.39,1793.59,668.39Z" transform="translate(-844.99 -178.39)"/><path class="cls-1" d="M1853.13,744.43c.72,6.81-1.44,39.45-5,44.11s-16.5,18.65-19.73,23-21.88,24-27.62,28.7-17.93,2.86-28.69-3.59-12.55-4-12.55,1.07-1.08,29.06,1.79,31.21,6.46,5,7.89,4.66,21.88-12.91,22.6-14.71,26.54-28.33,28-29.76,35.15-38.38,36.94-40.17,15.79-18.65,17.22-20.8,8.25-7.18,8.25-9.33,3.94-29.77,1.07-32.64-26.18-22.59-31.56-25.46-19.72-11.84-24-12.91,0,5.38,5,9,15.07,11.84,20.09,20.45,5,19.36,3.59,21.16A34.41,34.41,0,0,0,1853.13,744.43Z" transform="translate(-844.99 -178.39)"/><path class="cls-1" d="M1756.29,615.31l6.46,12.19,31.2,3.59s-3.59-7.53-3.59-8.61.72-17.21.72-17.21l-11.83-7.89S1763.47,610.65,1756.29,615.31Z" transform="translate(-844.99 -178.39)"/><path class="cls-1" d="M1782.47,602.76s-6.09,7.89-6.09,11.12,0,7.17,1.43,9.32,3.23,7.17,2.15,6.82-17.21-2.52-17.21-2.52l-6.46-12.19s16.14-12.55,23-17.93l3.58,3.94Z" transform="translate(-844.99 -178.39)"/><path class="cls-1" d="M1815.23,732.82c8.67,1.82,16.42,14.14,13.23,19.15S1815.69,768.85,1813,772s-7.75,15.06-8.66,7.3.45-41.51,0-43.79S1815.23,732.82,1815.23,732.82Z" transform="translate(-844.99 -178.39)"/><path class="cls-1" d="M1788.78,669.42c.91,5.47,6.84,20.07,2.74,19.15s-23.27-22.8-32.39-27.82-8.67-6.84-7.3-8.21,1.83-1.83,4.56-.91S1788.78,669.42,1788.78,669.42Z" transform="translate(-844.99 -178.39)"/><path class="cls-1" d="M1646,708.64c-1.52-.48-9-5.23-20.71-12.94-65.35-43.15-260.72-179.09-260.72-179.09l-177-116.76s-15.06-11.86-18.25-14.14-20.07-12.32-20.07-12.32a13.51,13.51,0,0,0-5-5.47c-3.64-2.28-6.38-.46-10-4.56s-1.82-10-6.39-10.49-14.14,0-15.5-.46-8.67-13.68-11.86-16.42-3.65-9.58-6.85-13.23-14.59-9.58-20.52-9.58-21-8.66-23.26-13.68-8.21-19.61-8.21-19.61-56.56-35.58-58.39-36.95-57.47-37.4-135.47-57.47c0,0,31.48,51.54,115,114.94L997,327.32s18.24.91,26,1.37a26.33,26.33,0,0,1,16.42,7.3c2.73,2.74,10.94,24.63,16,26.45s31,1.83,33.75,2.74,11.86,4.56,14.6,8.21,4.1,13.23,10.49,12.32,12.77,3.19,14.6,4.1,36.94,27.37,38.77,28.28,15,6.39,15,6.39l285.08,190.2,161.92,110.84Z" transform="translate(-844.99 -178.39)"/><path class="cls-1" d="M983.26,242.94c1.83,1.37,58.39,36.95,58.39,36.95s5.93,14.59,8.21,19.61,17.33,13.68,23.26,13.68,17.33,5.93,20.52,9.58,3.65,10.49,6.85,13.23,10.49,16,11.86,16.42a8.87,8.87,0,0,0,1.9.18l-14.59,17.51a58.89,58.89,0,0,0-10.58-4.92c-2.73-.91-28.73-.91-33.75-2.74s-13.23-23.71-16-26.45a26.33,26.33,0,0,0-16.42-7.3c-7.76-.46-26-1.37-26-1.37l-34.21-26.91c-83.47-63.4-115-114.94-115-114.94C925.79,205.54,981.44,241.57,983.26,242.94Z" transform="translate(-844.99 -178.39)"/><path class="cls-1" d="M925.88,271.38s10,10.51,12.45,15.49,12.72,18,13.55,17.69,5.53-7.74,5.53-7.74l15.48,26,6.91-9.12,18.53,25.71L997,327.32l31.24,2.13s6.64,25.16,3.32,27.93-26,11.61-26,11.61l83.56-3.81L1034.28,330s-68.58-37.05-70-38.16-44.52-28.75-44.52-28.75Z" transform="translate(-844.99 -178.39)"/><path class="cls-1" d="M942.49,283.13c.44.73,11.81,12,11.66,12.32s-3.35,6.85-3.35,7.36,7.36-3.64,6.49-7.14.14-2.26-4.67-6-12.68-11.45-13.19-10.5S942.49,283.13,942.49,283.13Z" transform="translate(-844.99 -178.39)"/><path class="cls-1" d="M964.94,302.59c2.12,3.36,4.59,4.23,6.13,6.35s1.45,2.47,1.09,4.95.14,6.64.36,6.56a60.08,60.08,0,0,0,5.84-7.21c.72-1.46,0-3.65-5.33-7.66s-10.28-7.51-10.28-6.85S964.94,302.59,964.94,302.59Z" transform="translate(-844.99 -178.39)"/><path class="cls-1" d="M982.15,315s9.33,14.21,10.06,15,3.71,4.3,4,4.74,2.69,5.11.36-.14-1.53-4.23-3.64-8.53-.37-2.63-3.58-6.56-4.44-5.84-5.76-6.42-2.84-1.46-2.77-.87A17.41,17.41,0,0,0,982.15,315Z" transform="translate(-844.99 -178.39)"/><path class="cls-1" d="M1031.37,332.94c-1.67,1.51,7.1,15.62,8,19.23s2.08,6-1.78,6.61-23,8.27-19,8.45,14.94.37,18.37.13,13.35-1.05,16.29-1.66,15.31.68,6.12-1.41-12.8,1.47-13.23-4.22a46.23,46.23,0,0,0-3.42-14.39c-1.66-4-3.25-10.72-5.21-11.39S1034.67,329.94,1031.37,332.94Z" transform="translate(-844.99 -178.39)"/><path class="cls-1" d="M1013.73,367.17c1.66-.18,11.88-4.28,16.41-6.92s8.76-5.88,5.58-4-26.58,11.7-26.58,11.7,4.35.06,4.59.12S1013.73,367.17,1013.73,367.17Z" transform="translate(-844.99 -178.39)"/><path class="cls-1" d="M961.29,227.41s13.43,5.39,19,5.88,21.39,5.21,21.44,6.08-5.17,8-5.17,8l29.87,4.84-6,9.79,30.73,7.76-11.74,3.16,13.47,28.27s25.84-3.08,27.19-7.18,1.24-28.45,1.24-28.45l26.57,80.56-52.25-39.47s-59.68-50.14-61.21-51-43.12-30.81-43.12-30.81Z" transform="translate(-844.99 -178.39)"/><path class="cls-1" d="M978.32,238.53c.84.14,15.53,6.56,15.75,6.31s5.14-5.64,5.61-5.82-.68,8.18-4.26,8.66-2,1-7.27-2.14-15.31-7.59-14.62-8.41S978.32,238.53,978.32,238.53Z" transform="translate(-844.99 -178.39)"/><path class="cls-1" d="M1004.68,252.25c3.9.73,5.62,2.71,8.15,3.36s2.84.44,5-.81,6.22-2.3,6.24-2.07a60.41,60.41,0,0,1-4.57,8.08c-1.09,1.21-3.39,1.34-9.07-2.14s-10.77-6.79-10.16-7S1004.68,252.25,1004.68,252.25Z" transform="translate(-844.99 -178.39)"/><path class="cls-1" d="M1022.53,263.69s16.66,3.44,17.67,3.83,5.37,1.87,5.88,2,5.74.63,0,.4-4.5.13-9.27-.26-2.58.63-7.42-.9-7.06-2-8.08-3-2.4-2.11-1.84-2.25A16.5,16.5,0,0,1,1022.53,263.69Z" transform="translate(-844.99 -178.39)"/><path class="cls-1" d="M1057.34,302.85c.79-2.1,17.13.86,20.83.39s6.34-.27,5.49-4.09-.78-24.45.86-20.81,5.83,13.75,6.87,17,3.94,12.8,4.45,15.76,6.26,14,1,6.21-3.35-12.44-8.8-10.75a46.31,46.31,0,0,1-14.64,2.11c-4.37-.05-11.16.92-12.51-.65S1055.76,307,1057.34,302.85Z" transform="translate(-844.99 -178.39)"/><path class="cls-1" d="M1082.68,273.86c.44,1.61.38,12.62-.4,17.81s-2.24,10.3-1.71,6.66,1.1-29,1.1-29,1.66,4,1.81,4.23S1082.68,273.86,1082.68,273.86Z" transform="translate(-844.99 -178.39)"/><path class="cls-1" d="M1611.8,697.7l-81.64-56.56-135.47-95.33s-130-84.39-132.74-86.21-76.62-52.46-76.62-52.46-5-.45-5,2.74-1.37,13.68-1.37,13.68l204.8,134.11,89.86,60.2,126.34,85.76L1625,721.87Z" transform="translate(-844.99 -178.39)"/><path class="cls-1" d="M1625.3,695.7s-9.39,5.19-13,4.28-73.44-50.18-73.44-50.18l-13.23-.91-.45,4.56,104.45,72.07,14.6-12.77,1.82-4.11Z" transform="translate(-844.99 -178.39)"/><path class="cls-1" d="M1463.11,602.37c2.09-4.89-112.67-75.26-119-79.37s-84.84-56.1-89.86-58.84-49.26-34.21-61.12-39.23-14.6-5.47-11.86-3.65S1329.92,523,1329.92,523L1417,580.93l44.7,30.56S1461.74,605.56,1463.11,602.37Z" transform="translate(-844.99 -178.39)"/><path class="cls-1" d="M1622.75,694.5s-6.84,3.2-10,0S1558,658,1556.61,656.64s-3.65-7.29-1.82-7.29S1622.75,694.5,1622.75,694.5Z" transform="translate(-844.99 -178.39)"/><path class="cls-1" d="M1471.32,591.87s-.92,2.29-4.11.46-99.89-66.14-101.72-67.05-94.87-65.23-104-69.79-54.74-37.4-63-41.05-11.4-11.86-11.4-11.86l5-.45,232.16,156Z" transform="translate(-844.99 -178.39)"/><path class="cls-1" d="M1180.31,400.3c-4,1.33-14.14,14.6-16.42,13.23s-18.7-12.32-22.81-15.51-8.66-6.38-5.47-8.66,10.49-7.76,11.86-5.48,7.3,12.77,12.77,15.05,10,2.74,14.6-.91S1181.68,399.85,1180.31,400.3Z" transform="translate(-844.99 -178.39)"/><path class="cls-1" d="M1187.61,399.85s-5.48,8.66-6.85,13.68,1.37,11.86-1.82,10-5.47-3.64-4.56-8.21,10.95-18.24,10.95-18.24Z" transform="translate(-844.99 -178.39)"/><path class="cls-1" d="M1176.2,393c-.91,1.37-3.65,3.65-9.12.46s-14.6-6.39-15.51-7.75-2.73-7.76-2.73-7.76l5.93-1.37Z" transform="translate(-844.99 -178.39)"/><path class="cls-1" d="M1150.66,373.85l-16.88,20.52-10-6.38s-5.47-2.74-9.58-2.28-8.21-2.74-9.12-6.85-.46-6.38-2.74-8.21-5.47-5-5.47-5l13.68-15.51,1.83,2.28s13.68-1.37,15.5.46,3.2,2.73,4.57,5.93,2.73,7.75,5,8.21,6.84-.92,8.67,1.36S1150.66,373.85,1150.66,373.85Z" transform="translate(-844.99 -178.39)"/><path class="cls-1" d="M1133.78,373.39l-9.12,10.95,4.11,5.47a10,10,0,0,0,3.65,1.37c1.36,0,5.93-1.82,8.21-5s9.12-5.93,8.21-8.21,4.1-4.56,2.28-6.84-7.3-5.93-7.3-5.93l-6.39,1.83Z" transform="translate(-844.99 -178.39)"/><path class="cls-1" d="M1121,361.08a7.14,7.14,0,0,1-.91,9.57c-3.19,3.2-6.84,6.39-6.84,6.39s-5,1.82-6.39-.91-6.84-8.67-6.84-8.67l-3.19-1.82,9.58-4.56s3.19-1.83,5.47-1.83S1121,361.08,1121,361.08Z" transform="translate(-844.99 -178.39)"/><path class="cls-1" d="M1124.21,379.32s1.82-.91,1.36-8.67-1.36-11.85-3.65-13.22a35.76,35.76,0,0,0-4.56-2.28s7.3-2.28,9.58.45a24.29,24.29,0,0,1,4.56,9.12c.46,2.29.92,5.48,0,7.3A22.29,22.29,0,0,1,1126,378Z" transform="translate(-844.99 -178.39)"/><path class="cls-1" d="M1088.17,329.6s5.47-4.56-5-5.47-11.86-2.28-15.05-4.56-7.75-3.65-12.31-5a14.28,14.28,0,0,1-8.21-6.84c-.92-1.83-10-23.26-10.95-27.37s2.74-6.38,5-3.19,2.28,14.14,11.4,23.72,13.68,11.4,17.79,12.31,17.79,5,19.16,5.93,7.29,5,6.84,8.21-1.37,8.67-5,5.48Z" transform="translate(-844.99 -178.39)"/><path class="cls-1" d="M1092.73,344.66c0,5-3.19,13.68-5.93,12.77s-5.47-5.48-7.75-7.76-2.74,0-7.3,0-7.3.46-10-4.56-7.3-15.05-7.3-17.33,2.28-10,6.38-5,5,8.21,8.67,10.49,9.58.46,13.23,2.28,6.38,5.93,8.21,6.84A2.84,2.84,0,0,1,1092.73,344.66Z" transform="translate(-844.99 -178.39)"/><path class="cls-1" d="M1096.84,354.23c3.65.92,5.47,2.74,2.73,5.48a53.59,53.59,0,0,1-5.93,5s-4.1-.91-8.21-1.36-21.89,0-23.71-.92-11-.45-12.32-4.56-6.38-13.22-6.84-15.51-3.65-5.92-1.37-9.12,3.65-10,6.39-5.93,8.21,7.3,10.49,13.23,12.31,12.32,14.14,12.32,5.47-3.2,7.3.45,7.75,5.48,9.57,5S1096.84,354.23,1096.84,354.23Z" transform="translate(-844.99 -178.39)"/><path class="cls-1" d="M1053.7,316.75l-9.1,10.54s-31.12-19.16-33-19.16-4.79,1.44-7.66-.48S912.43,232,912.43,232s1.44-5.27,20.6,1.44,90.5,52.2,90.5,52.2,1.92,6.22,2.4,7.66S1053.7,316.75,1053.7,316.75Z" transform="translate(-844.99 -178.39)"/><path class="cls-1" d="M1040.32,333c4.06,4.06-15-16-21.17-18.35s-9.88-3.76-9.88-3.76S968.81,283.17,966,280.82s-55-48-55-48S874.24,207,868.6,202.72s-19.76-13.18-19.76-13.18,54.1,61.17,68.69,73.4,81.39,62.57,81.39,62.57,15.53,2.83,20.23,2.83S1036.56,329.28,1040.32,333Z" transform="translate(-844.99 -178.39)"/><path class="cls-1" d="M1030.24,274.87c0,4.56,3.65,8.66-2.73,5.47s-7.76.46-10-.45S963.65,248.41,959.54,247s-19.61-13.68-39.22-14.14l-60.67-39.68s16.42,0,20.53,1.83,67.51,26,82.1,36,63.86,39.23,63.86,39.23Z" transform="translate(-844.99 -178.39)"/><path class="cls-1" d="M1572.22,655.85s-11-19.68-15.51-23.56-12.53-11-18.2-13.72-22.66-17.3-25-19.09S1498.55,588.75,1495,589s-7.46,1.5-7.16,3.58-1.79,1.79-5.37,2.09-9.54,3-11.63,4.47-6,5.08-6,7.16-3.87,18.79-3.28,19.69,20.88,15.8,20.88,15.8,2.09,17.6,3.28,19.39,11.34,11.63,11.34,11.63l.59,11.34s6.86,5.07,8.35,7.15,35.2,18.79,37.58,22.67-.89,7.46.3,8.35,26.25,28.93,29.53,32.21,7.75,12.83,9.24,14.32,1.79,3.88,5.07,2.09,7-.1,7.46-3.28.3-8.06,2.39-9.25,18.49-12.53,18.49-12.53l11.48-7.59,2-12.81L1547.46,669l-22.32-15.53s-.94-3.56.85-3.56,13.42.59,14.31.59,14.91.9,15.51,0-.89-4.47-.89-4.47l19.38,14Z" transform="translate(-844.99 -178.39)"/><path class="cls-1" d="M1510.78,668.38c1.19.3,30.72,21.17,40.56,22.07s18.79.3,17.3-2.39,2.38-3.58,2.38-3.58l58.57,41-2,12.81-9.69,7-6.27,3.88-18.49-13.43s-20-18.19-22.07-19.08-9,.29-9,.29-2.68-13.12-3.87-15.51.59-8.05-6.56-6.26-29.23-4.47-33.71-6.86-17.3-9.54-17.3-9.54Z" transform="translate(-844.99 -178.39)"/><path class="cls-1" d="M1601.74,709.54s-16.7,16.7-15.51,18.19,6.86,8,6.86,8a81.06,81.06,0,0,1,10.14-8,100,100,0,0,1,16.41-8.65l-15.51-11Z" transform="translate(-844.99 -178.39)"/><path class="cls-1" d="M1582.65,768.89c0-1.19-38.77-46.53-38.77-46.53s17.9-5.07,21.48-5.07,9.24,0,10.14,1.49,29.52,25.35,30.42,26.55,6,.3,1.79,3.88a154.84,154.84,0,0,1-13.42,10.43c-6,4.18-7.16,6.86-8.36,9S1582.65,768.89,1582.65,768.89Z" transform="translate(-844.99 -178.39)"/><path class="cls-1" d="M1560.88,725.64c4.18,3.88,17.9,20.28,24.46,22.07s17,0,17.3,1.2-14.32,11.63-15.21,13.72.29,6.86-4.48,0-22.07-27.14-24.16-29.83S1560.88,725.64,1560.88,725.64Z" transform="translate(-844.99 -178.39)"/><path class="cls-1" d="M1552.83,695.22c-1.19.08-9.84-.3-17.9-1.19s-18.79-6.56-18.79-6.56l-15.51-8.65-3.87,4.47a85,85,0,0,0,24.45,16.7c15.51,7.16,21.18,14,21.18,14l1.49,8.35,18.19-5.37-3.87-17.59S1557.3,694.92,1552.83,695.22Z" transform="translate(-844.99 -178.39)"/><path class="cls-1" d="M1537.92,706.26c3.58.59,16.4,3.87,18.19,5.07s5.37,4.47.89,6-10.14,3.28-10.14,2.09S1537.92,706.26,1537.92,706.26Z" transform="translate(-844.99 -178.39)"/><path class="cls-1" d="M1515.25,641.24s3.58-6.86.89-6.27-7.45,4.48-8.35,5.08-10.44,12.22-11.33,13.71,1.19,3.29,2.09,1.5,10.73-11,12.23-12.23A12.8,12.8,0,0,1,1515.25,641.24Z" transform="translate(-844.99 -178.39)"/><path class="cls-1" d="M1507.2,628.12c.29-6-3.88-5.37-5.37-3.58S1489,642.43,1489,642.43s-6.56,8.05-5.37,8.65,2.69,1.79,6.27-1.79,11.33-13.72,11.93-14.61S1507.2,628.12,1507.2,628.12Z" transform="translate(-844.99 -178.39)"/><path class="cls-1" d="M1517.93,614.1c-.32-.06-10-.16-12.22-.9-2.69-.89-8.06-5.37-9.55-6.26s-5.67-3.58-5.67-3.58-.89-8.35,1.79-8.05,7.46,3.58,9,6.56,8.65,6.56,11.63,6.26a26.44,26.44,0,0,1,9.85,1.79c.89.6,13.42,11,13.42,12.23s.29,2.09-.3,3,1.49,3.88-2.69,1.2-14-10.44-14-10.44Z" transform="translate(-844.99 -178.39)"/><path class="cls-1" d="M1546,638c.3-1.2,5.07-1.79,5.67-2.69s-.3-6.56-.3-6.56,6.56,2.69,7.16,4.48,11.33,20.57,11.33,20.57l.89,1.79s-10.43-3.28-12.22-4.77-5.67-5.37-6.57-6.26-2.08-1.49-3.58-3-3.57-3.88-3.57-3.88Z" transform="translate(-844.99 -178.39)"/><path class="cls-1" d="M1489,642.43c.9-3.88,9.92-13.91,9.63-16.89s-10.82-7.86-12-9.65-3.28-7.76-4.18-7.16-3.28.6-3.28,5.67.9,9.54.9,11.33,0,8.65.29,9.84,2.09,6.26,2.09,6.26l.3,3.58Z" transform="translate(-844.99 -178.39)"/><path class="cls-1" d="M1468.72,627.82c-.89-2.39-1.19-16.11-.59-17.9s6.26-7.45,6.26-7.45-.3-2.39-3.28-1.5-5.37,4.18-5.37,4.18-1.79,10.74-2.09,11.93a62.51,62.51,0,0,0-.59,7.16c0,.89-.9,1.19,0,2.09s5.66,4.47,5.66,4.47Z" transform="translate(-844.99 -178.39)"/><path class="cls-1" d="M1549.55,641.24c-1.2.3-11.34-2.69-14-3.28s-6.86.3-7.16-.6-.89-3.58.3-3.88,7.16-.59,9.25.6,10.14,6,10.14,6Z" transform="translate(-844.99 -178.39)"/><path class="cls-1" d="M1520.92,622.75c-.9,0-10.44,3-11.93,2.38s-5.67-2.68-5.67-2.68-.9-1.49,4.47-1.49h12.53C1521.21,621,1520.92,622.75,1520.92,622.75Z" transform="translate(-844.99 -178.39)"/><path class="cls-1" d="M1544.78,637.66c-1.79-2.69.59-5.67-3.58-7.16a34,34,0,0,0-6.86-1.79,5.91,5.91,0,0,1,4.77-1.19c2.68.6,7.16,3.28,7.46,4.77s-.6,5.67-.6,5.67Z" transform="translate(-844.99 -178.39)"/><path class="cls-1" d="M1537.62,666.29c-1.2-.89-10.74-8-14.32-7.45s-4.17,3.28-4.77.59,1.49-6,2.39-6.26,3.37-1.22,4.22.28,14.27,6.88,15.16,9.86S1537.62,666.29,1537.62,666.29Z" transform="translate(-844.99 -178.39)"/><path class="cls-1" d="M1954.22,307.17c1.71-1.15,9.14-5.15,11.42-10.57s6-10.86-2-5.72-16,8.86-19.71,11.14-10,3.72-3.14,4S1954.22,307.17,1954.22,307.17Z" transform="translate(-844.99 -178.39)"/><path class="cls-1" d="M1846.23,352.59c-2.28-.93-18.57-19.14-23.71-21.71s-8.57-7.43-1.72-6.29,18.57,13.43,21.43,16.86S1853.94,355.73,1846.23,352.59Z" transform="translate(-844.99 -178.39)"/><path class="cls-1" d="M1727.1,356.59c-3.14,4.86-12.57,11.71-14.85,14.57s-22,27.42-22,24.28,3.71-13.14,9.43-18.57A220.9,220.9,0,0,0,1716,360c4-4.86,12-17.14,12.86-12A11.88,11.88,0,0,1,1727.1,356.59Z" transform="translate(-844.99 -178.39)"/><path class="cls-1" d="M1742.24,349.45c-1.43,1.14-7.71,7.14-8.85,3.71a94,94,0,0,1-2.29-9.43l7.72-6.85,4.57,10.85Z" transform="translate(-844.99 -178.39)"/><path class="cls-1" d="M1718.25,449.15c1.24,4.48.57,7.71-2.29,10.57s-2.57,4.85-2.57,8,7.14,17.71.29,12.57-11.43-2.57-11.15-8.86,2.86-12.28,7.15-18S1716.82,444,1718.25,449.15Z" transform="translate(-844.99 -178.39)"/><path class="cls-1" d="M1732,460.86c5.6.86,11.14,10,9.14,11.43a38.84,38.84,0,0,1-6.57,3.14s4.86-6.28,0-6.28-9.14,5.42-8.86,2.85S1724.53,459.72,1732,460.86Z" transform="translate(-844.99 -178.39)"/><path class="cls-1" d="M1680.54,440.58a136.42,136.42,0,0,1,2.28,13.71c0,1.43-5.14,2.29-6.57.57s-5.71-1.43-5.14-2.86S1680.54,440.58,1680.54,440.58Z" transform="translate(-844.99 -178.39)"/><path class="cls-1" d="M1745.62,549.05a37.94,37.94,0,0,1,2.91,12.94c0,3.14-12.64,13.37-16.36,9.66s4.58-13.64,4.58-15.07,0-15.25.26-16.68S1745.62,549.05,1745.62,549.05Z" transform="translate(-844.99 -178.39)"/><path class="cls-1" d="M1668,681.4c-2.52,6.71-12-14.85-6-17.71s24-14.85,33.14-14.85,25.14-1.72,28.56.57,12.57,2.28-.28,8.28-18.28,13.43-20.86,13.71-7.14-1.42-8.85.29-3.14,4.29-4.57,4.86S1668.82,679.12,1668,681.4Z" transform="translate(-844.99 -178.39)"/><path class="cls-1" d="M1721.67,675.12c2.08,5.75,9.72,5.43,8.86,8s-4,1.71-1.43,4,15.71,15.71,17.71,16.57,5.43-4,6.57-9.43,19.72-12,12-17.14-23.71-17.43-25.71-18-3.71,3.14,2,7.14,11.71,6,6,8.57a108.53,108.53,0,0,0-12.28,6.86S1719.1,668,1721.67,675.12Z" transform="translate(-844.99 -178.39)"/><path class="cls-1" d="M1638.1,977.7H1012.86s30.39-53,66.43-86.84,74.25-76.85,134.6-114.19,130.69-54.71,201.47-47.76,104.2,22.14,149.36,56.44,70.34,134.17,72.51,149.37S1638.1,977.7,1638.1,977.7Z" transform="translate(-844.99 -178.39)"/><path class="cls-1" d="M1623.77,904.76c-5.21,3.91-13,6.08-14.76,3s.43-6.95-4.34-14.76-23.88-53-26.49-55.15-7-9.55,2.61,8.69,17.8,56.88,17.8,61.22-11.73,18.67-18.24,19.1-11.29,2.61-17.37,2.61-23.44,3-23.44,3-11.29-4.35-13.46-6.08-4.78-5.21-5.21-3.91-1.74,4.34-1.74,4.34l-7.38,3.48-.44,18.67s-.43,9.55-6.51,7.81-21.71,1.3-21.71,1.3-1.3-10.42-2.6-21.71-8.25-34.73-8.25-33,4.34,38.2,3.9,44.28,3.48,14.77-.86,14.77-12.16-.44-13.46-.44-13.46,3.48-14.33,4.78,3,7.38-23,6.95-66.87,3.47-66.87,3.47l280.49.43s1.3-30,0-41.25S1623.77,904.76,1623.77,904.76Z" transform="translate(-844.99 -178.39)"/><path class="cls-1" d="M1448.79,864.81c6.51,10.42,12.16,25.19,9.55,23s-15.63-22.57-21.71-25.61-8.68-.44-7.81,2.17,3.91,5.64-7-3-23-18.24-23-16.07-4.34,7.82-6.08,9.56-16.5,3-19.11,8.68-17.8,18.24-18.23,19.54,2.6,8.68-1.3,7S1342,878.27,1335,876.1s-12.59,2.61,0-7.38,20-15.2,20.84-20.84-4.34-9.12-5.21-10.42-3.91-1.3-1.3-3,7.82-2.61,9.12-3.91,6.08-4.78,6.08-7.38,24.31,2.6-9.56-5.21-56,1.3-52.1-2.61,43.85-10.42,69-2.17,72.51,32.57,76.42,42.55S1448.79,864.81,1448.79,864.81Z" transform="translate(-844.99 -178.39)"/><path class="cls-1" d="M1262.09,821.39c9.11-4.77,33.86-6.94,17.36.44s-60.35,24.31-64.69,28.65-32.13,34.31-35.6,37.78-5.21.87-5.21,7-6.52,11.29-7.39,12.59-4.34,3.47-3,3.91,15.2-4.35,18.67-4.78,22.15-7.38,23.45-1.3-9.55,15.19-11.72,17.8-6.51,7-6.51,8.25,20.84-5.65,22.14,4.34-7.38,16.07-7,17.8,3.91,10.42,6.51,12.16,23.45,11.29,33,11.29H1127.05l-114.19.43s20.84-32.56,24.75-40.38,83.36-86.4,83.36-86.4l-3.47,18.67s-29.53,24.75-30.39,26.48-.87,5.21-.87,5.21,49.06-49.93,56.44-52.1,11.73-1.3,12.16,4.34,5.64,3-7.82,15.2-36.9,40.38-40.81,45.16-6.08,8.25-3,8.68,3.91,3.47,5.65.43,5.64-9.55,15.63-18.67,36.9-24.75,36.9-24.75-6.94,9.12-1.73,3,59.92-45.59,67.3-49.06S1262.09,821.39,1262.09,821.39Z" transform="translate(-844.99 -178.39)"/><path class="cls-1" d="M1529.55,919.09c-7-13.46-15.2-68.61-47.33-98.57s-87.7-43-112.45-43-35.61-3.91-36.91-6.08-10.42-16.93-11.72-20,39.94-7.82,66-7.82,72.52,5.21,116.37,30.83,71.21,67.73,72.51,71.64,13.89,44.72,14.33,47.33,3.91,21.27,3.91,21.27l-9.12,10.43-4.78,1.73-13,2.17s-17.81,1.74-19.11,1.74-10,2.17-10,2.17l-10.42-6.08Z" transform="translate(-844.99 -178.39)"/><path class="cls-1" d="M1357.61,908.23c2.6,17.8,13.46,30.4,2.17,36.47s-7.82,6.08-12.59,12.16-8.25,7.38-9.12,10,0,3-4.34,2.6-8.25,2.61-8.25,3.91,22.14,5.21-3,1.3-81.63-.86-81.63-.86l1.3,5.21s148.5-3.91,150.24-4.35,12.59-1.73,14.32-1.73h25.62l11.72-3s-7.81-6.08-9.11-9.55-1.74-6.52-2.61-10-4.78-7.38-3.47-10.86,6.08-7.38,3.91-10.42-7.39-15.19-12.16-19.54-13-16.49-17.37-20.4-.43-20.41,0-22.15,7-10.85-2.61-6.94-14.32,11.29-16.06,13S1368,887.39,1366.29,890s-8.68,9.55-8.68,9.55Z" transform="translate(-844.99 -178.39)"/><path class="cls-1" d="M1316.8,731.08c-2.61-.87-104.21-14.76-114.2-16.06s-90.74-13.9-103.77-13.47-31.7.87-19.11,3.48,30,4.34,16.5,4.77-57.74,0-63.39,3.91-18.23,15.2-22.58,16.94-13,4.34-20,8.68S893,820.52,887.81,824.87s-22.58,20.4-24.31,22.57-14.33,9.12-17.81,34.31,16.07,92.48,16.94,98.56,2.17,13.89,15.63-20,15.2-73,31.69-86,31.7-46.45,31.7-46.45,16.5,13.89,18.67,36,29.53,60.79,40.82,64.26,32.13,6.52,36.47-1.73,22.58-44.29,26.48-56,55.58-54.71,60.79-58.62,25.62-12.59,31.26-12.59,18.24-12.59,20-13-.44,5.65-3.91,9.56a19.92,19.92,0,0,0-4.34,6.94l3,3s43-29.09,53.4-35.17,55.58-27.35,88.14-35.6S1316.8,731.08,1316.8,731.08Z" transform="translate(-844.99 -178.39)"/><path class="cls-1" d="M1006.35,734.55c3.81,8.1-12.6,22.58-22.15,30s-30.83,33.87-38.21,50.8-21.27,42.56-26.48,49.07-16.07,42.12-20,47.33-14.32,22.14-8.68-.87S923,835.72,926,829.64s24.31-52.1,30.83-61.22S979,731.51,990.71,732,1002.87,727.17,1006.35,734.55Z" transform="translate(-844.99 -178.39)"/><path class="cls-1" d="M1223,727.17c-19.54-.87-32.13-16.06-43.42,4.34s-17.8,34.31-21.28,30.83,2.17-25.18-13-19.1-14.76,2.6-16.07,13,10.42,20.41,10.86,24.32-17.37,19.1-33,33.87-26,23.88-42.12,35.6-19.1,21.71-20.41,15.2-2.17-28.23-10.85-32.57-5.21-9.55-10.42-20.41-9.12-13.46-9.55-14.76-.87-14.76,4.77-17.8,3.91-9.12,14.33-9.12,25.18-4.77,25.18-4.77,11.73-7.39,13-8.69-5.21-2.6-11.29-2.6-15.63,3,.87-6.52,23-12.59,21.71-12.59-13.46.87-28.22.87-36-1.3-35.61-3,20.41-13.89,34.3-14.76,43.42-3,50.81-4.78-7.39-3.91-7.39-3.91l-17.8-6.51,20.41-1.74s53,4.78,61.65,6.52,65.13,8.68,73,11.29-8.25,7.38-8.25,7.38Z" transform="translate(-844.99 -178.39)"/><path class="cls-1" d="M1033.7,923.86c1.54-7.42,6.51-23.88,3.47-33.43s5.21-11.72,12.6-21.28,46.45-41.24,51.23-45.59,27.35-25.61,35.17-28.22,29.09-12.59,32.56-11.29,19.54-3,5.65,3.48-16.93,11.28-16.93,11.28-13.46,2.61-20,5.22-16.93,11.72-19.54,14.32-39.51,35.17-41.24,36.91-9.12,9.12-10.86,12.16-15.63,35.17-18.24,39.94-10.85,19.54-12.15,20.84S1031.09,936.45,1033.7,923.86Z" transform="translate(-844.99 -178.39)"/><path class="cls-1" d="M850,918.65c-1.31-10,6.94-26.92,6.94-38.21s3.48-21.27,18.67-34.3,49.5-36.9,54.71-43.85,10.42-13.9,11.72-16.5,9.12-15.2.44-7.82-31.26,29.09-34.3,30.83-43.42,37.34-43.42,37.34-10.86,9.12-12.59,14.33-7.38,20-7,26S850,918.65,850,918.65Z" transform="translate(-844.99 -178.39)"/><path class="cls-1" d="M1912.94,952.49c3.37-6.74,44.54-53.31,48.58-60s25-31.72,25.65-43.19S2006.06,798,2006.06,798s-40.49-14.84-60.06-27.67-51.28-40.48-53.31-41.83-10.1-6.67-9.44-2.33-1.07,32.64-1.07,32.64-23.9,29.74-28.63,35.14-72.2,68.83-75.58,72.88-12.37,5.19-13.72-1.56-2.5-32.43-3.18-40.53S1740.51,800,1740.51,800l-25.29,45.18A108.61,108.61,0,0,1,1705.1,860c-6.08,7.43-14.85,11.48-18.22,18.22S1666.5,901,1666.5,901s29.15-12.61,12.28,11-49.26,37.11-23.62,40.48a42.4,42.4,0,0,1,33.74,25h102.57c11.47,0,99.87.68,103.92-5.4s6.75-4.72,8.78-8.09S1912.94,952.49,1912.94,952.49Z" transform="translate(-844.99 -178.39)"/><path class="cls-1" d="M1751.66,970s31-38.47,38.46-51.29,41.84-54,47.24-63.43,33.06-37.11,39.81-49.94,26.32-35.76,24.3-39.81-22.27,25.64-26.32,31.72-31,42.51-43.86,52-22.27,14.84-21.6,18.22,6.75,12.82-6.07,22.27-33.74,29-35.77,30.36-8.09-12.82-16.19-20.92,14.84-13.49,12.14-18.89,3.38-13.5-9.44-6.75-14.85,6.75-15.52,4.05-10.13-6.75,0-14.85S1755,860,1753,848.57s-7.43-37.11-7.43-37.11-3.37,6.07-12.14,17.54-21.6,31.72-22.27,35.77,3.37,12.82,0,16.19-11.47,3.38-15.52,3.38-6.75,1.35-6.75,5.4,2,12.82-.68,16.19-29,31.72-31.71,34.42-8.77,7.42-3.38,9.44,25.65,6.75,31.72,12.83,2.7,11.47,4.72,12.14-1.35,1.35,17.55,1.35h43.19Z" transform="translate(-844.99 -178.39)"/><path class="cls-1" d="M1743.56,911.33c-.68,6.07,7.42,20.24-6.07,18.22s-20.25-10.12-24.3-14.17-10.12-13.5-10.12-13.5,4.72-6.07,8.1-2.7,19.57,10.8,25.64,10.13S1743.56,911.33,1743.56,911.33Z" transform="translate(-844.99 -178.39)"/><path class="cls-1" d="M1696.32,911.33c2,3.37,10.8,19.57,12.15,21.59s10.8,7.43-.68,8.1-18.22,1.35-21.59,0-14.85-4-10.12-10.12,11.47-15.52,13.49-18.22S1696.32,911.33,1696.32,911.33Z" transform="translate(-844.99 -178.39)"/><path class="cls-1" d="M1806.32,875.57c8.53,6.4-24.3,36.44-33.74,35.09s-13.5-10.13-14.17-13.5-5.4-5.4,2.69-8.1,13.5-6.75,23-8.1S1803.62,873.54,1806.32,875.57Z" transform="translate(-844.99 -178.39)"/><path class="cls-1" d="M1907.54,758.82c3.37-.67,14.17-2.7,2,16.87s-18.22,36.44-20.92,43.19-2,15.52-8.09,25.64-8.1,33.74-14.17,39.14-46.57,45.22-51.29,49.26-11.47,13.5-17.55,17.55-9.44-1.35-1.35-10.8,27-33.06,24.3-31-4.73,5.4-12.82,12.15-9.45,8.77-15.52,14.84-20.25,24.3-20.92,21.6,36.44-54,39.14-59.39,37.11-47.23,37.11-47.23,17.55-30.37,21.59-35.09,29-43.87,30.37-45.89S1907.54,758.82,1907.54,758.82Z" transform="translate(-844.99 -178.39)"/><path class="cls-1" d="M1952.08,804.71c.67-6.07,14.84-25.64,12.82-12.15s-14.85,35.77-18.22,40.49-15.52,19.57-15.52,21.6-5.4,13.49-12.15,16.87-7.42,1.35-7.42-.68,2-14.17-.68-11.47-8.09,10.12-14.84,19.57-23.62,33.74-33.74,45.21-20.25,32.39-22.95,35.77-2,11.47-8.09,11.47-12.83,2.7-25.65,3.37-20.92,6.08-14.17-2,26.32-29,37.79-37.12,38.47-35.09,44.54-44.53,18.89-25.65,18.89-37.79-1.35-32.39,2-35.09,6.07-2.7,6.07-5.4.68-8.77,2-12.15S1917.66,777,1917.66,777s4-6.07,5.4.68-.67,52.63-1.35,55.33S1952.08,804.71,1952.08,804.71Z" transform="translate(-844.99 -178.39)"/><path class="cls-1" d="M1935.88,854c0-4.91,8.77,12.82,8.77,17.55s-10.79,17.54-14.17,22.94-8.77,6.75-10.79,17.55-17.55,27-20.92,32.39-14.17,14.17-16.2,15.52-7.42-6.08-3.37-9.45,13.49-17.55,6.75-10.12-18.22,18.89-17.55,16.19-2-3.37,8.1-15.52c8.08-9.7,14-16,17.11-20.83a19,19,0,0,0,1.78-3.46c2-5.4-25,25-29,29s-9.45,7.42-11.48,3.37-8.77,5.4-.67-6.75,27-25.64,33.06-35.09,16.2-25.64,18.22-27.67,4-2.7,11.48-4S1935.88,856,1935.88,854Z" transform="translate(-844.99 -178.39)"/><path class="cls-1" d="M1976.81,815.46c7.41,6.24,7.78,14.14,2.12,24.56s-14.16,40.94-19.11,47.64-7.08,14.89-12,21.59-34,36.48-41.77,43.92-17.69,27.54-19.82,18.61,22-29,30.44-42.43,23.36-38.71,27.61-46.15,9.91-14.15,12.74-23.08,6.38-17.12,7.79-23.82S1969.73,809.5,1976.81,815.46Z" transform="translate(-844.99 -178.39)"/><path class="cls-1" d="M1815.76,897.83c.68-6.07,19.57-23.61,23-24.29s-7.42,16.2-5.4,21.59-.68,17.55-6.75,23.62-8.77,13.5-8.1,6.08,6.75-19.57,6.75-19.57-8.77,6.75-10.8,2.7S1815.76,897.83,1815.76,897.83Z" transform="translate(-844.99 -178.39)"/><path class="cls-1" d="M1859,854.65c2.7-2.7,16.87-35.77,17.55-21.6s-12.15,35.77-14.17,42.52-4,13.49-12.15,17.54-10.8,8.77-10.8,1.35,6.75-20.92,7.43-23.62,10.12-10.12,10.12-10.12Z" transform="translate(-844.99 -178.39)"/><path class="cls-1" d="M1887.29,733.85s17.55,12.83,14.18,18.9-8.1,11.47-14.85,16.87-10.8,14.85-4.72,2.7a45.16,45.16,0,0,0,4.72-24.29C1886.62,745.33,1887.29,733.85,1887.29,733.85Z" transform="translate(-844.99 -178.39)"/><path class="cls-1" d="M1883.45,332.51c1.38.42-22.85,51.65-28.34,57.59s-21.94,27-21.94,27-6.86-9.6-14.63-9.6a88.84,88.84,0,0,1-11-.46s34.29-27,38.86-34.74,19.19-33.82,19.19-33.82A15.46,15.46,0,0,1,1883.45,332.51Z" transform="translate(-844.99 -178.39)"/><path class="cls-1" d="M1860.66,360.13c.54-.72,5.2-16.14,8.61-10.76s-4.31,22.95-6.46,26.18-23,33.72-23.85,34.61-4.66,5.74-4.66,5.74-4.66-6.1-10.76-7a56.55,56.55,0,0,1-12-3.41s21.16-12,26.72-19.55,13.45-15.78,16.32-19.18S1860.66,360.13,1860.66,360.13Z" transform="translate(-844.99 -178.39)"/><path class="cls-1" d="M1760.42,370.89c-.36-3.95,3-10.58,5.38-11.3s37.12,4.31,45,8.25,16,10,16.85,11.66,2.87,3.76,2.34,5.74-19,18.65-21.88,18.65-4.49-1.8-11.12-.54-17.93,10.4-18.47,9.32-3.77-5-9.68-10-6.64-4.66-1.62-12,13.45-9,9.51-12.56S1760.42,370.89,1760.42,370.89Z" transform="translate(-844.99 -178.39)"/><path class="cls-1" d="M1799.15,400.66s-2.78-9.57-7.93-10.21-11.6,2.14-13.54,3.65-7.3,6.23-7.3,6.23l9.22,8.94a104.14,104.14,0,0,1,9.9-5.51A69.24,69.24,0,0,1,1799.15,400.66Z" transform="translate(-844.99 -178.39)"/><path class="cls-1" d="M1814.41,399.68s-.43-3.65-9.23-9.45-13.1-6.44-8.59-7.09,19.11,2.37,20.4,3.44,5.58,5.37,5.58,5.37Z" transform="translate(-844.99 -178.39)"/><path class="cls-1" d="M1778.58,380.36s4.85-4.86-10.93-8.5-21.85-4.45-24.68-2.43-6.48,6.88-6.48,6.88,17.81,19,19.83,21,10.93,8.91,10.93,8.91a29.09,29.09,0,0,1-2.83-8.5c-.81-4.86,3.23-6.48,6.07-10.52S1778.58,380.36,1778.58,380.36Z" transform="translate(-844.99 -178.39)"/><path class="cls-1" d="M1768.93,440.13c0,19.17,16.69,34.7,37.28,34.7s37.28-15.53,37.28-34.7S1826,403,1805.43,403,1768.93,421,1768.93,440.13Z" transform="translate(-844.99 -178.39)"/><circle class="cls-1" cx="958.29" cy="263.66" r="19.53"/><path class="cls-1" d="M1799.33,434.55c5.56,1.79,15.78,5.56,10.76,10.76s-7,12.91-13.45,6.81-7-13.62-2.87-15.78S1799.33,434.55,1799.33,434.55Z" transform="translate(-844.99 -178.39)"/><path class="cls-1" d="M1815.65,413.39c4.84,2.87,15.24,12.73,15.24,15.06s-.36,10.58-.36,10.58l-7.73,3s.92-1.94-.7-5.17-5.38-11.12-9.5-12.19-12.37-2.33-12.37-2.33l-4.31,1.79.36-5.2s-7.71-2-8.25-1.79-4.66,4.84-4.66,4.84-2-3.41.36-5,12.19-9.15,18.83-9.87,14.16,6.46,14.16,6.46Z" transform="translate(-844.99 -178.39)"/><path class="cls-1" d="M1811.07,448.19c1-.32,3.49-.32,5.39-1.27s2.54-4.76.32-8.25-5.08-10.16-6.35-9.52-3.81,1.9-4.12,3.49-.64,1.9.31,2.85,3.81,5.08,3.81,5.08Z" transform="translate(-844.99 -178.39)"/><path class="cls-1" d="M1789.47,466.47s5.41-1.46,2.87-4.31-7.3-6.67-8.57-10.48-1.59-12.69-1.59-15.23,8.89-11.11,9.21-12.38,4.13-3.81,0-3.81-8.25,1.59-9.52,3.17a119.63,119.63,0,0,0-7,10.48c-.31.95-.31,7.93,0,10.15s4.45,10.48,6,12.38,6.67,7,6.67,7Z" transform="translate(-844.99 -178.39)"/><path class="cls-1" d="M1722.91,424.35c-.71,0-15.69,5.53-20.87,4.64s-16.59-9.46-16.59-9.46L1704,402.59Z" transform="translate(-844.99 -178.39)"/><path class="cls-1" d="M1717,422.74l-13-11.95-12,9.1s7.14,6.24,10,6.06S1709.89,426.31,1717,422.74Z" transform="translate(-844.99 -178.39)"/><polygon class="cls-1" points="887.94 256.59 885.29 256.37 868.79 240.23 858.79 233.3 849.22 235.66 841.07 241.01 858.65 224.66 887.94 256.59"/><polygon class="cls-1" points="861.99 357.66 851.95 355.87 845.13 356.41 853.21 365.19 861.99 357.66"/><polygon class="cls-1" points="855.07 357.07 849.13 356.02 845.11 356.34 849.88 361.46 855.07 357.07"/><path class="cls-1" d="M1720.34,543.13s-14.93,10.09-22.46,10.36,5,4.71,7.8,6.86,6.72,8.34,7.26,8.07,3.23-1.48,4.84-8.07,5.52-15.2,5.52-17.62-2.16-4.31-2.69-2.69A6.88,6.88,0,0,0,1720.34,543.13Z" transform="translate(-844.99 -178.39)"/><path class="cls-1" d="M1683.22,545.69c.27.29-.54,9.68-.81,12.37s-.94,10.36-1.08,12.78-.4,6-1.34,5.51-2.29-1.34-2.29-1.34l.41-29.32S1680,542.19,1683.22,545.69Z" transform="translate(-844.99 -178.39)"/><path class="cls-1" d="M1668.83,526.86c.53,1.07,5.78,8.88,6.18,9.41s-1.34,1.08-3.63-2-5.78-6.33-5.92-6.86S1668.83,526.86,1668.83,526.86Z" transform="translate(-844.99 -178.39)"/><path class="cls-1" d="M1661.43,523.9c.94-.94,4.84-1.08,10.76-3.09s16.27-5.11,17.08-5.52,5.38-1.21,2.42-.94-14.26,3.09-17.62,3.5-13.72,2.28-14.25,3.49-.81,2.43.13,3.37S1661,524.3,1661.43,523.9Z" transform="translate(-844.99 -178.39)"/><path class="cls-1" d="M1681.6,891.46c-3.18,0-36.56,5.56-38.15,15.1s-5.57,31-5.57,34.18,1.59,11.92,5.57,11.92,1.59.79,10.33-9.54,15.89-14.3,23.84-23.84,16.69-14.31,11.13-19.87S1681.6,891.46,1681.6,891.46Z" transform="translate(-844.99 -178.39)"/><path class="cls-1" d="M1676.39,896.23c-2.76,0-31.81,4.84-33.19,13.14s-4.84,27-4.84,29.74,1.38,10.37,4.84,10.37,1.38.69,9-8.3,13.83-12.45,20.75-20.74,14.52-12.45,9.68-17.29A57.29,57.29,0,0,1,1676.39,896.23Z" transform="translate(-844.99 -178.39)"/><path class="cls-1" d="M1869.16,783.37c3.18.8,22.26-8,14.31,1.59s-30.2,42.12-35.76,46.1-44.51,24.64-50.08,30.2S1773,875.57,1777,872.39s28.73-26.63,35.77-35,29.4-31.8,31.79-35,15.59-16.73,19.72-21.08S1869.16,783.37,1869.16,783.37Z" transform="translate(-844.99 -178.39)"/><path class="cls-1" d="M1990,818.34c-1.59,3.18-15.89,35.77-15.89,38.95s-8.75,30.2-8.75,30.2,15.9-19.08,18.28-26.23,11.13-29.41,11.13-33.38,4.77-20.67,3.18-23.84-6.36.79-6.36,4S1990,818.34,1990,818.34Z" transform="translate(-844.99 -178.39)"/><path class="cls-1" d="M1885.06,963.79c-2.38,5.56-9.54,11.12-11.92,11.12s-29.41.8-29.41.8-5.19-8.06-4.77-11.92,16.53-30.79,23.37-39.64,16.37-25.54,14-13.61-23.52,28.7-22.09,31.83-.17,7.9.63,10.29-1.59,4.77,3.18,4.77,9.54-4.77,9.54-4.77l.82,3.88,9.51-3.09,6.36-4.76a15.6,15.6,0,0,1,1.59,5.56c0,2.38-2.6,3.39-3.29,5.67S1885.06,963.79,1885.06,963.79Z" transform="translate(-844.99 -178.39)"/><path class="cls-1" d="M1997.92,798.47s-16.69,5.57-20.66-.79S1963,777,1959,783.37s-10.34,10.33-13.52,2.39-23.84-23.85-24.63-27-25.44-11.92-15.9-10.33,32,21,36.56,21.46,37.35,16.69,46.1,20.66S1997.92,798.47,1997.92,798.47Z" transform="translate(-844.99 -178.39)"/><path class="cls-1" d="M1732.18,645.5c-1.62-.25-9.16-14.13,8.8-14.52s19.42-4.58,26-3.05,32.26.76,39.22,7.26,21.26,14.52,25.3,14.9,11.73-1.53,16.49-2.68,21.26-8.4,27.49-10.31,26.76-5.73,30.43-3.06,8.06,9.94,2.93,13.76-13.2,7.64-5.13,12.61,141.12,13.75,145.89,14.52,11.36,1.91,11.36,1.91.73,20.25,23.83,35.53l23.09,15.29s32.26,1.53,101.17,17.57,202,47,215.53,56.94,85.78,45.47,73.68,43.94-63.41-21.78-105.2-27.13-70.75,6.88-88.34,7.64-105.2,24.84-155.42,15.67-136-14.14-220.3-81.77-98.6-75.28-98.6-75.28-42.52-21.78-44.72-22.92-35.93-19.49-35.93-19.49A30.25,30.25,0,0,1,1732.18,645.5Z" transform="translate(-844.99 -178.39)"/><path class="cls-1" d="M1787.53,644.74c7.68,4.5,108.87,39,134.53,48.91s83.94,25.22,115.83,43.18,103.73,40.12,127.19,39.74,70.38,4.2,31.89-9.56-67.08-22.54-79.91-27.13-74.41-27.51-101.17-35.53-95.3-29-118.39-40.5-12.47-9.18-10.63-14.53,2.93-17.57-9.53-8.4-20.53,20.25-37,11.46-47.65-15.28-49.85-14.52S1781.66,641.3,1787.53,644.74Z" transform="translate(-844.99 -178.39)"/><path class="cls-1" d="M1998.67,730c5.49,2.29,50.58,34.39,80.27,47s70.75,28.66,33.36,18-99.34-34-105.94-34.39-35.19-22.93-43.25-26-6.6-2.68,3.3,7.64,9.53,13.37,2.2,11.46-14.3,2.68-30.43-6.88-82.47-53.49-88-56.93-19.43-17.2-22-19.11-14.3-12.61-3.67-6.49,77,31.33,86.14,34.77,63.42,14.9,69.28,18.34S1998.67,730,1998.67,730Z" transform="translate(-844.99 -178.39)"/><path class="cls-1" d="M1782.76,645.5c2.2,2.3,27.5,14.91,29.33,19.49s-5.5,4.59-11,.38-29-16.81-32.62-18.72-27.13-5.73-31.16-6.5-7.33-4.58,1.83-5.35,26.4,0,30.43.39,10.63-1.91,10.63,2.67A12.78,12.78,0,0,0,1782.76,645.5Z" transform="translate(-844.99 -178.39)"/><path class="cls-1" d="M1533.05,675.08c4.78.44,5.21,4.7,12,3.13s8.35-3.13,10.43-2.08,13,7.82,13,7.82-.52,5.73-4.17,5.73-9.84,3.1-13,.77-14.64-6-17.25-8.59S1527.31,674.56,1533.05,675.08Z" transform="translate(-844.99 -178.39)"/><path class="cls-1" d="M1507,669.35c-5.74-3.13-12.52-2.09-14.08-4.18s-4.17-12-4.17-7.82,3.65,13.56,5.73,16.17,1.57,6.26,3.13,7.3,8.35-6.26,9.91-7.3S1507,669.35,1507,669.35Z" transform="translate(-844.99 -178.39)"/><path class="cls-1" d="M1524.18,646.92c-1.56,1.56-9.91,6.78-9.91,9.39s-4.26,7.3,0,5.21,7.82-6.78,8.87-8.34a6.91,6.91,0,0,1,6.26-3.65c3.65,0,17.21,1.56,17.21,0s-4.7-4.17-9.91-4.7S1524.18,646.92,1524.18,646.92Z" transform="translate(-844.99 -178.39)"/><path class="cls-1" d="M1517.93,614.1c-1.57-.56-24,0-27.13-1.6a24.76,24.76,0,0,0-6.26-2.09s-3.12,2.61,3.13.52,9.91-2.08,11.48-1.56S1517.93,614.1,1517.93,614.1Z" transform="translate(-844.99 -178.39)"/><path class="cls-1" d="M1488.72,602.07a49.88,49.88,0,0,0-4.7,4.69c-1.58,2-7.33,3.41-1.58,2a13.32,13.32,0,0,0,8-5.37Z" transform="translate(-844.99 -178.39)"/><path class="cls-1" d="M1488.72,598.42c-.53-2.61,1-3.65-1.57-4.17a8.2,8.2,0,0,0-4.71.46s0,.06,1.58,1.62S1488.72,598.42,1488.72,598.42Z" transform="translate(-844.99 -178.39)"/><path class="cls-1" d="M1490.49,603.36" transform="translate(-844.99 -178.39)"/><path class="cls-1" d="M1052.2,321.49c0-1.56-3.78-5.83,1.5-4.74s18.84,3.7,21.45,5.26,13,6.26,15.12,7.3,4.7,5.74,6.26,7.83,8.35,7.3,8.35,9.9-1.05,7.31-3.13,6.78-4.18-3.12-6.26-2.6-3.13,6.25-3.13,6.25l-7.82-.52s-3.65,0-5.22-1-1-3.13-3.13-3.65a5.84,5.84,0,0,0-4,.61l-5.41-1.65a28.32,28.32,0,0,0-5.08-6.11c-2.74-2.24-10-11.63-10-11.63l-5.21-7.82,2.08-4.17s5.74,4.69,7.82,9.91,8.35,12,8.35,12l7.82,3.65s3.63,3.7,6.51,2.63,5,.5,6.53,1a28.16,28.16,0,0,0,5.74.52l-1.57-4.7,3-1.86-1.82-2.29s-2.2-4.71-3.24-6.28.52-3.65-2.61-4.69-3.65-1.57-5.22-2.09-2.61-.52-4.17-1.56-3.65-1.05-5.21-1.05-3.13,1.57-4.7.53-.26-1.8-2.61-3.13l-2.35-1.34-4.43-1.79Z" transform="translate(-844.99 -178.39)"/><path class="cls-1" d="M1482,770.72c-16.5-7-25.92-9.79-43.54-14.33-1.72,1.15-2.56,1.72-4.24,2.89a287.48,287.48,0,0,1,34.28,10.35c-9.41,5.06-14,7.74-22.6,13.34-12.83-4-19.58-5.67-32-8.42h0c-2.09,1.72-1.27,3.65,1.84,4.38a316.63,316.63,0,0,1,34.27,9.54A274.94,274.94,0,0,1,1482,770.72Z" transform="translate(-844.99 -178.39)"/><path class="cls-1" d="M1455.14,769.63c-8.72-2.78-17.17-5.09-25.72-7.16-4.84,3.49-7.18,5.27-11.68,8.85,8.12,1.83,16.2,3.88,24.54,6.32,1.37-.91,2.59-1.7,4.16-2.7-6.64-2-10-2.9-16.61-4.55,1.61-1.16,2.43-1.73,4.08-2.87,5.72,1.48,11.16,3,16.84,4.76C1452.39,771.27,1453.58,770.55,1455.14,769.63Z" transform="translate(-844.99 -178.39)"/><path class="cls-1" d="M1391.52,774.44c6.31-5.59,12.37-11,18.57-16.34-2.11-.4-3.15-.59-5.18-1-4.8,4.38-10,8.83-15,13.3-6.27-.58-11.62-1-17.09-1.28,6.56-6.52,13.46-13.15,21.56-20.36-2.41-.1-3.59-.14-5.91-.21-9,8.37-16.63,16-24.07,23.72C1372.77,772.66,1381.68,773.37,1391.52,774.44Z" transform="translate(-844.99 -178.39)"/><path class="cls-1" d="M1397.46,775.15c2.34.28,3.41.45,5.46.87a260.54,260.54,0,0,1,26.75-21.62c-12.24-2.86-16.11-4.65-28.91-5.27-8.27,7.06-12,10.46-18.92,17h0c3.15.2,7.44-1.1,9.57-3,4.4-3.94,7.44-6.21,11.5-10,6.27,1,9.68,1.59,16.71,3.07C1410.18,763.64,1406.66,767.28,1397.46,775.15Z" transform="translate(-844.99 -178.39)"/><path class="cls-1" d="M1344.52,749.56c-8.06,10.16-11.81,15.05-19.46,24.58,12.28-1.86,18.5-2.2,32.5-2h0c1.64-1.76.78-3.24-1.87-3.24a170.7,170.7,0,0,0-21.83,1.1c4.2-5.14,17.07-21,17.07-21C1348.31,749.21,1347,749.32,1344.52,749.56Z" transform="translate(-844.99 -178.39)"/><path class="cls-1" d="M1380.57,748.39c-2.6,0-4.69-.06-7.5-.06-4.5,4.65-8.72,9.18-13,13.82-5.07,0-9.25.15-13.63.41-1,1.2-1.83,2.17-2.78,3.3,6.32-.4,12.86-.53,20.17-.4C1369.05,760,1374.39,754.44,1380.57,748.39Z" transform="translate(-844.99 -178.39)"/><path class="cls-1" d="M1349.47,759.07c2.39-.12,4.18-.19,6.33-.25,3-3.42,6-6.75,9.26-10.34-2.19,0-4.23.1-6.68.21C1355.39,752.12,1352.46,755.54,1349.47,759.07Z" transform="translate(-844.99 -178.39)"/><path class="cls-1" d="M1288.57,783.71c7.28-9.18,14-18.24,20.61-27.66a203.37,203.37,0,0,1,29.35-5.9c-6.65,8.69-12.9,16.89-19.37,25.05A205.36,205.36,0,0,0,1288.57,783.71Zm27.17-10.8c4.55-5.87,9-11.82,13.7-18.11-5.69,1-11.21,2.14-17.11,3.67-4.66,6.52-9.26,12.75-14.23,19.19C1304.38,775.68,1309.84,774.19,1315.74,772.91Z" transform="translate(-844.99 -178.39)"/><path class="cls-1" d="M1312.68,770.68h0c3.34-4.39,5-6.6,8.28-11.08-2.14.46-3.2.7-5.33,1.23-1.92,2.64-2.88,3.95-4.82,6.55S1309.71,771.4,1312.68,770.68Z" transform="translate(-844.99 -178.39)"/><path class="cls-1" d="M1585.22,920.54c-3.12-17.06-5.69-25.9-12-41.94l-5.94,1.28a198.19,198.19,0,0,1,9.77,32.57c-12.84,1.87-19.26,2.66-31.46,4a216.77,216.77,0,0,0-7.39-30.75h0a5.07,5.07,0,0,0-3.94,6.45,213.53,213.53,0,0,1,6.46,33.18C1557.89,923.93,1567.13,923,1585.22,920.54Z" transform="translate(-844.99 -178.39)"/><path class="cls-1" d="M1568.28,905.33a242.71,242.71,0,0,0-7.52-24.25c-6.9,1.42-10.28,2.09-16.8,3.38,2.5,7.7,4.61,15.37,6.4,23.42l5.85-.8c-1.52-6.41-2.39-9.61-4.3-15.84l5.77-1c1.71,5.37,3.16,10.54,4.5,16Z" transform="translate(-844.99 -178.39)"/><path class="cls-1" d="M1527.55,869.62c8.22-2.21,16.76-4.31,26-6.64-.89-2-1.34-3-2.26-4.88-7.34,1.95-13.88,3.75-20.45,5.59-2.07-5.17-4-9.56-6-14,8.7-3.12,18.31-6.07,29.07-9.39-1.11-1.8-1.66-2.69-2.78-4.42-12.23,3.94-23,7.43-32.5,11.4C1521.61,854,1524.63,861.39,1527.55,869.62Z" transform="translate(-844.99 -178.39)"/><path class="cls-1" d="M1529.23,874.65c.66,2,1,3,1.61,5,14.27-3.21,22.36-4.82,39-8.71a199.61,199.61,0,0,0-13.06-25.78c-10.74,3.16-15.88,4.61-25.21,7.56h0a6.23,6.23,0,0,0,7.18,3.25c5.85-1.68,8.92-2.53,15.23-4.29,3.15,5.87,4.67,9,7.54,15.35C1547.73,870.29,1541.1,871.72,1529.23,874.65Z" transform="translate(-844.99 -178.39)"/><path class="cls-1" d="M1527.15,802.36A313,313,0,0,0,1497,813.22c11.06,9.94,14.31,17.58,19.25,28.65h0a4.15,4.15,0,0,0,1.92-5.55c-3.53-7.21-5.4-11.92-11.88-19.47l24.87-9.08C1529.66,805.81,1529,804.77,1527.15,802.36Z" transform="translate(-844.99 -178.39)"/><path class="cls-1" d="M1547.29,829.94c-1.32-2-2.41-3.51-3.9-5.6-6.3,2.31-12.22,4.56-17.91,7-2.25-4-3.47-6.09-6.08-10.57-1.43.42-2.57.77-3.93,1.19,4,6.36,5.87,10.61,8.88,16.39C1531.25,835.53,1538.74,832.87,1547.29,829.94Z" transform="translate(-844.99 -178.39)"/><path class="cls-1" d="M1523.22,818.93l3,4.84c4-1.8,8.16-3.51,12.77-5.34-1.2-1.63-2.34-3.16-3.71-5C1531.11,815.22,1527.11,817,1523.22,818.93Z" transform="translate(-844.99 -178.39)"/><path class="cls-1" d="M1456.87,791a329,329,0,0,1,32.18-17c13.25,6.23,24.57,13.41,33.39,22.7-10.47,3.58-20.83,7.45-31.06,12C1481.24,801.13,1469.47,795.64,1456.87,791Zm32.58,11.23c7.32-3.36,14.79-6.42,22.54-9.35a113.29,113.29,0,0,0-19.88-12.8c-7.89,3.57-15.41,7.27-23,11.43A129.58,129.58,0,0,1,1489.45,802.23Z" transform="translate(-844.99 -178.39)"/><path class="cls-1" d="M1487.48,796.21h0c5.43-2.54,8.19-3.74,13.74-6.05-2.42-1.59-3.67-2.35-6.25-3.82-3.24,1.43-4.85,2.16-8,3.66S1484.1,794.24,1487.48,796.21Z" transform="translate(-844.99 -178.39)"/><g class="cls-2"><path class="cls-1" d="M1341,378.8c-9.07-5.86-10-4.6-16.24-6.6a11.61,11.61,0,0,1-.87,3.67c4.28,1.32,6.58,1.88,14.23,6.74,1.08,4.45,1.6,6.66.78,9.1-6.85-4.38-10.76-7-15.53-9.28a33,33,0,0,1-1.49,3.17,87.72,87.72,0,0,1,14.28,8.72c-3.15,1.7-5.8,2.44-9.17,4.23-3.51-3.88-5.68-5.3-10.16-7.78-1,1.27-1.62,1.92-2.7,3.23,4.68,3.15,6.36,4.72,12.06,9.55C1329.75,396.38,1346.55,397.28,1341,378.8Z" transform="translate(-844.99 -178.39)"/><path class="cls-1" d="M1308.76,364.27c-1-.48-1.51-.69-2.53-1.13-1.25,8.72-3.34,12.35-10.36,21.27,1,.51,1.45.78,2.53,1.35,1.48-2.19,2.91-3.31,5.23-5.51,7.74-2.28,9.54-2.63,15-4.64-2.3,6.3-4.8,9.15-8.7,15.81,1.24.7,1.8,1,2.85,1.71,6.44-8.69,9.69-11,10.22-21.69l-1.12-.45h0l-.23-.11c-.64-.27-1-.41-1.62-.72-5.4,3.33-5.84,3.46-12.22,5.54C1310.8,371.2,1308.86,369.24,1308.76,364.27Z" transform="translate(-844.99 -178.39)"/><path class="cls-1" d="M1289.81,357.92a39.73,39.73,0,0,1-3.84-1.59c2.3,7.06,2.36,10,2.81,14.86a47.28,47.28,0,0,0-5,8.14c1.38.52,2.08.77,3.41,1.24,2.19-3.55,3.46-5.56,5.27-8.66a46,46,0,0,0,12.42-9.33c-1.27-.54-1.94-.91-3.47-1.49-4,2.43-4.92,4.67-9.12,7.52C1291.44,365,1291.4,362.52,1289.81,357.92Z" transform="translate(-844.99 -178.39)"/><path class="cls-1" d="M1265.36,362.5a7.05,7.05,0,0,0,1.44,3.72,15.44,15.44,0,0,0,3,3,10.49,10.49,0,0,0,3.61,1.95,6.81,6.81,0,0,0,3.84-.11,9.19,9.19,0,0,0,3.77-2.13,10.16,10.16,0,0,0,2.48-3.14,7.15,7.15,0,0,0,.29-5.19,14,14,0,0,0-2.71-5.17,12.49,12.49,0,0,0-4.45-3.49,11.78,11.78,0,0,0-5.43-1.12h0a9.77,9.77,0,0,0-4.83,1.32,2.84,2.84,0,0,0-1.54,3,18.35,18.35,0,0,1,.49,3C1265.38,359.34,1265.23,361,1265.36,362.5Zm3.26,0a11.91,11.91,0,0,1,.19-2.81,9.27,9.27,0,0,0-.07-3.07,1.77,1.77,0,0,1,.81-1.8,4.57,4.57,0,0,1,2.68-.65,8.08,8.08,0,0,1,3.46.89,9.54,9.54,0,0,1,4.91,5.74,5,5,0,0,1,0,3.26,8.8,8.8,0,0,1-2,3.26,4.15,4.15,0,0,1-2.23,1.27,5.06,5.06,0,0,1-2.59-.08,6.56,6.56,0,0,1-2.41-1.28,7.39,7.39,0,0,1-1.86-2.09A5.91,5.91,0,0,1,1268.62,362.52Z" transform="translate(-844.99 -178.39)"/></g><path class="cls-1" d="M1722.4,655c-15.26-.64-24.1.82-39.42,4.91-1.62,1.84-2.42,2.77-4,4.63,11.65-3.35,18.25-4.67,30.51-5.45a215.44,215.44,0,0,0-22.06,22.37,121.75,121.75,0,0,0-26.44,7.61h0c-1.79,2.77-1.37,4.25,1,3.34a121.34,121.34,0,0,1,28.72-7.56C1702.34,672,1708.66,665.93,1722.4,655Z" transform="translate(-844.99 -178.39)"/><path class="cls-1" d="M1697,664.66a148.74,148.74,0,0,0-22.35,5.15c-4.39,5.59-6.43,8.43-10.32,14.18a145.45,145.45,0,0,1,20.34-6c1.29-1.5,2.44-2.82,3.94-4.49a126.42,126.42,0,0,0-14.23,3.52c1.47-1.88,2.21-2.82,3.73-4.68a146.9,146.9,0,0,1,14.62-3.3C1694.32,667.4,1695.47,666.21,1697,664.66Z" transform="translate(-844.99 -178.39)"/><path class="cls-1" d="M1792.86,798.66c-.13-22.64.22-32.56-1-50-2.24.35-3.36.51-5.57.83.79,13.33.68,20.7.66,37a248,248,0,0,1-29.44-4.26c1-12.75,1.63-18.64,2-29.52h0a6,6,0,0,0-5.25,5.3c-1,11.53-2,17.78-3.19,31.22C1767.17,794.1,1776.11,796.25,1792.86,798.66Z" transform="translate(-844.99 -178.39)"/><path class="cls-1" d="M1780.57,776.43c.07-9.62,0-18.09-.34-26.26-6.41.86-9.52,1.21-15.45,1.88-.07,7.32-.45,14.79-.9,23.08,1.78.18,3.38.33,5.43.5.23-6.84.34-10.11.41-16.37,2.1-.1,3.17-.15,5.32-.28,0,5.56,0,11-.17,17.11C1777,776.24,1778.55,776.33,1780.57,776.43Z" transform="translate(-844.99 -178.39)"/><path class="cls-1" d="M1755.25,738.28c7.33-2.12,15-4.09,23.64-6.34-.26-2-.41-2.9-.72-4.77-6.81,2-12.75,3.84-18.63,5.74a99.22,99.22,0,0,0-1.83-12.46c7.82-3.64,16.55-7.15,26.77-11.07-.61-1.75-.93-2.61-1.6-4.28A307,307,0,0,0,1753,718.81,97.55,97.55,0,0,1,1755.25,738.28Z" transform="translate(-844.99 -178.39)"/><path class="cls-1" d="M1755.24,742.65c0,1.7,0,2.57-.1,4.32,12.77-2.35,20.15-3.42,35.8-6.6-1.22-11.66-2.18-16.87-5-26.28-10.17,3.62-14.86,5.28-23.27,8.64h0c.45,2.31,2.72,3.56,5.29,2.68,5.32-1.83,8.14-2.76,14-4.7A118.25,118.25,0,0,1,1784.7,736C1771.81,739,1765.83,740.14,1755.24,742.65Z" transform="translate(-844.99 -178.39)"/><path class="cls-1" d="M1763.76,674.54c-11.42,4.48-17.85,7.68-30.12,15.59,10.34,6.14,15.18,14,18,23.9h0c1.87-1.14,3-3.62,2.29-5.49-2.36-6.49-5.08-11.6-11.22-17.29,6.55-3.47,24.64-12.19,24.64-12.19C1766,677.34,1765.39,676.82,1763.76,674.54Z" transform="translate(-844.99 -178.39)"/><path class="cls-1" d="M1780.42,699.42c-.89-1.85-1.64-3.32-2.74-5.28-6,2.94-11.57,5.78-16.81,8.76a72.83,72.83,0,0,0-5.08-9.86c-1.43.51-2.58,1-4,1.5,3.8,5.58,5.44,10,7.26,15.25C1765.37,706.39,1772.25,703.08,1780.42,699.42Z" transform="translate(-844.99 -178.39)"/><path class="cls-1" d="M1759.59,691.09c1,1.63,1.73,2.87,2.55,4.37,3.78-2.25,7.68-4.43,12.14-6.78-1-1.5-1.92-2.89-3.12-4.55C1767.09,686.43,1763.28,688.71,1759.59,691.09Z" transform="translate(-844.99 -178.39)"/><path class="cls-1" d="M1696.86,684.22a254.24,254.24,0,0,1,32.07-28.55c12.27,1.47,22.72,5.6,30.64,13.69a194.43,194.43,0,0,0-31.17,18.27C1719,683.73,1708.13,683.11,1696.86,684.22Zm30.12-2a214.31,214.31,0,0,1,22.71-14.84,51,51,0,0,0-18.38-6.93,246.37,246.37,0,0,0-23,19.12A62.11,62.11,0,0,1,1727,682.18Z" transform="translate(-844.99 -178.39)"/><path class="cls-1" d="M1725.51,677.16h0c5.45-4.2,8.24-6.18,13.84-9.87a44,44,0,0,0-5.8-1.83c-3.28,2.33-4.91,3.54-8.12,6S1722.37,676.43,1725.51,677.16Z" transform="translate(-844.99 -178.39)"/></svg>