<svg xmlns="http://www.w3.org/2000/svg" viewBox="0 0 372.36 349.13">
  <path d="M618.53,477l0,0h0Z" transform="translate(-535.47 -265.87)"/>
  <path d="M835.21,364.1c7.86,3.46,9.09,9.83,9,17.19a32.8,32.8,0,0,0,.67,5l8.5,1.3c.35,7.1.69,13.66,1,20.52h11.43v-9.57L857.1,397V354.56c-7.15,0-13.42-.19-19.66.13-1.71.09-4.78,1.79-4.75,2.65C832.79,359.7,833.6,363.39,835.21,364.1Z" transform="translate(-535.47 -265.87)"/>
  <path d="M816.16,436.84c1.34-33.92,1.27-33.92-6.07-35v41.46c.89.38,5,.35,5.91.73C817.18,441.48,816.06,439.4,816.16,436.84Z" transform="translate(-535.47 -265.87)"/>
  <path d="M645,471.3v.14l0-.12Z" transform="translate(-535.47 -265.87)"/>
  <path d="M618,465h-1.79A7.64,7.64,0,0,0,618,465Z" transform="translate(-535.47 -265.87)"/>
  <path d="M822,464.32v2A9.76,9.76,0,0,0,822,464.32Z" transform="translate(-535.47 -265.87)"/>
  <path d="M663,461.65c.17-1.48.22-3.44.45-4.94H663Z" transform="translate(-535.47 -265.87)"/>
  <path d="M613.92,454.65c0,.12-.06.23-.1.35h.91Z" transform="translate(-535.47 -265.87)"/>
  <path d="M663,474.34h0a8.73,8.73,0,0,0,0-4.41Z" transform="translate(-535.47 -265.87)"/>
  <path d="M643.86,465.53V465h-2.41A8,8,0,0,1,643.86,465.53Z" transform="translate(-535.47 -265.87)"/>
  <path d="M832.16,469h-2.72A15.41,15.41,0,0,0,832.16,469Z" transform="translate(-535.47 -265.87)"/>
  <path d="M844.45,391.43v53.12l14.31-.79c2.73-11.23,5.09-21,7.54-31.07l-15.47-.78C848,396,847,392.39,844.45,391.43Z" transform="translate(-535.47 -265.87)"/>
  <path d="M638.94,465H634.1A21.7,21.7,0,0,0,638.94,465Z" transform="translate(-535.47 -265.87)"/>
  <path d="M839,465.33V463A12.6,12.6,0,0,0,839,465.33Z" transform="translate(-535.47 -265.87)"/>
  <path d="M907.72,427.53c0-1.34-1.7-2.63-2.48-4-1.55-2.74-4.22-5.49-4.3-8.31-.39-12.74.09-25.51,0-38.26-.05-7.31-7-16.52-12.63-14.95-5.29,1.47-9.81,6.64-14,10.84-2.63,2.63-4.06,6.47-6,9.77l-3,10.69c.74.71-3.25,1.09-3.26.71-.21-8.19.38-19.49.33-27.68-.09-18.06,0-16.43-20.85-16.78-2,0-3.91-.17-5.86-.3-6-.4-9.26,1.67-8.55,8.63.21,2.07-.76,5.74-2.1,6.25-9.49,3.55-9.13,11.48-8.49,19,.76,9-.69,15.07-12.07,13.05-.21,3.38-.5,6-.53,8.72-.1,11.24,0,22.49-.31,33.73-.06,1.79-2.1,3.53-3.23,5.29-1.09-1.74-2.82-3.37-3.15-5.25-.52-3.09-.14-6.33-.14-10.17H776.54c-1.71-45.66-3.39-90.68-5.07-135.66H759.9c-1.66,45.39-3.31,90.42-5,135.44H743.52c-1-27-2.15-53.6-3.09-80.21-.95-26.88-1.73-53.77-2.58-80.5C738,267,726,267,726,267c-.86,40.1-2.85,89.52-4.28,129.61-.38,10.52-1.25,21-2,32.47H700.39c-.28,5.44-.51,9.89-.76,14.66C700,444,680,423,679.79,423.12L654.1,443.79c-3.6-7.27-6.88-13.89-10.58-21.34l-26.68,21.81-9.43-22.21-24.78,20.21c-.46-33.4,10.33-60.73,30.67-84,26.79-30.65,61.59-43.72,103.1-42.35V267.2c-20-3.57-24.25-.82-28.67,18.84-.58,2.56-1,6.7-2.56,7.23-7.08,2.48-14.46,4.94-21.83,5.28-2.78.13-6-5.35-8.7-8.52-12-14-9.31-13.83-28.17-4.28-5.58,2.83-7,6.29-5.1,12.41C625,310.11,627,315,615,325c-.21.18-3.77,3.81-4,4-5,4-7.56,3.24-12.54.77-21-10.37-18.19-10.47-31.14,6.33-3.7,4.8-3.66,8.29-.16,12.69,3.72,4.68,7.23,9.52,10.87,14.42a4.72,4.72,0,0,1,.47,4.85c-3.07,6.42-5.49,13.43-10.31,17.83-3.5,3.21-11.51,1.44-17.5,2a24.25,24.25,0,0,0-6.28,1c-1.74.65-3.85,1.77-4.63,3.28-8,15.5-5.1,23.7,10.64,31.18a53.73,53.73,0,0,1,6.43,3.36,6.25,6.25,0,0,1,2.62,3.13c3.65,13.79-.72,23.23-13.45,29.43-.81.39-1.69.67-2.51,1.06-6.11,2.95-8.77,7.11-7.33,14.45,3.52,17.95,3.21,18,21.15,18.2,2.44,0,5-.51,7.25.2s4.82,2.2,5.95,4.12c3.37,5.7,6.1,11.78,9,17.56-4.42,6-8.82,11.8-12.93,17.77-1.3,1.9-3.18,5.28-2.44,6.39,4.2,6.25,8.31,13.1,14.15,17.47,2.63,2,10.13,0,13.8-2.55,9.39-6.48,15.6-5.13,24.55,2.26,7.08,5.85,8.43,10.06,6.16,17.86-1.49,5.12-4.05,13.1-1.7,15.53,5.16,5.34,12.84,8.88,20.11,11.21,2.45.79,8-3.52,10-6.81,6.37-10.56,14.09-15.15,25.74-10,.55.24,3.51,1.68,4,2,3,2,5.82,2.09,6.91,8,3.56,19.1,9.08,23,27.35,20.21,2.62-.4,5.93-3.58,6.9-6.22a154.5,154.5,0,0,0,4.66-16.63,8.42,8.42,0,0,1,5.95-6.13c6.54-1.77,13.2-4.21,18.35-2.38,6.8,2.42,11.38,11.07,17,17a19.93,19.93,0,0,0,2.18,1.84,2.53,2.53,0,0,0,2.69.26l19-9.81a4.66,4.66,0,0,0,2.48-4.6c-.26-2.52-.39-4.55-1.22-6.25-6.39-13.21-2.1-22.09,9.73-29.8,4.55-3,6.86-4,11.64-1.19,18.33,10.92,22.37,9.85,33.34-8.14C849.12,540.19,851,536,851,536c-1,0-40-24-40-24-2.89,3-4.58,4.35-7,7.14C783,543,757.59,558.31,725.83,563c-45,6.63-94.41-11.26-121.64-53.89H907.83C907.83,481.43,907.87,454.48,907.72,427.53ZM629,455h16v10h-1.14v.53a8,8,0,0,0-2.41-.53h-2.51a21.7,21.7,0,0,1-4.84,0H629Zm-20,22H593V467h16Zm0-12H593V455h16Zm18,12h-8.44l0,0v0H611V467h16Zm0-12h-9a7.64,7.64,0,0,1-1.79,0H611V455h2.82c0-.12.06-.23.1-.35l.81.35H627Zm18,12H629V467h16v4.3l0,0,0,.12Zm18-2.66h0V477H647V467h16v2.93A8.73,8.73,0,0,1,663,474.34Zm0-12.69V465H647V455h16v1.71h.45C663.22,458.21,663.17,460.17,663,461.65ZM682,477H666V467h16Zm0-12H666V455h16ZM837.44,354.69c6.24-.32,12.51-.13,19.66-.13V397l8.75,1.61v9.57H854.42c-.34-6.86-.68-13.42-1-20.52l-8.5-1.3a32.8,32.8,0,0,1-.67-5c.08-7.36-1.15-13.73-9-17.19-1.61-.71-2.42-4.4-2.52-6.76C832.66,356.48,835.73,354.78,837.44,354.69Zm-27.35,47.12c7.34,1.11,7.41,1.11,6.07,35-.1,2.56,1,4.64-.16,7.16-.89-.38-5-.35-5.91-.73ZM822,469H810V455h12v9.32a9.76,9.76,0,0,1,0,2Zm14,0h-3.84a15.41,15.41,0,0,1-2.72,0H824V455h12Zm15,0H839v-3.67a12.6,12.6,0,0,1,0-2.38V455h12Zm7.76-25.24-14.31.79V391.43c2.53,1,3.59,4.6,6.38,20.48l15.47.78C863.85,422.77,861.49,432.53,858.76,443.76Z" transform="translate(-535.47 -265.87)"/>
</svg>