<svg xmlns="http://www.w3.org/2000/svg" viewBox="0 0 321.4 301.62">
  <path d="M910.55,375.51c-28.14-8-56.3-16-84.4-24.14a10.83,10.83,0,0,0-8.07.67c-17.93,8-36.35,9-54.58,1.78a27.11,27.11,0,0,0-19.15-.74c-24.12,7.21-48.37,14-72.58,20.93,23.61-19.12,54.39-34.64,89.83-45-93.34,4.74-167.32,70.38-167.32,150.67,0,83.37,79.76,151,178.14,151a209.11,209.11,0,0,0,43.43-4.52c-37.44-1.36-69.73-8.8-96.65-20.71H858.58c5.1,0,6.27-1.14,6.27-6.16V436.06c.91,0,1.44,0,2,0,11.42,1.17,22.85,2.32,34.27,3.54,4.15.44,5.68-.6,6.32-4.75q4-25.91,8-51.82C916.19,377.89,915.6,377,910.55,375.51Zm-96.8-12.6c-1.06,7.75-12.46,16.3-22.9,17.29-11.84,1.11-24.17-6.33-28.15-17.4A81,81,0,0,0,813.75,362.91Zm-61.78-3c.93,2.16,1.77,4.18,2.67,6.16,6.59,14.49,17.81,22.57,33.75,22.58s27.18-8,33.78-22.53c.91-2,1.73-4,2.67-6.2l8.45,2.43c-6.3,21.22-24,34.93-44.87,34.94s-38.53-13.65-44.91-34.92ZM621.46,466.24c0-30.69,14.67-59.24,39.89-83.11q4.06,26.1,8.11,52.19c.51,3.32,2,4.66,5.41,4.35,7.74-.72,15.47-1.57,23.21-2.35,4.54-.46,9.08-.9,13.88-1.37V599.44a13.58,13.58,0,0,0,.22,2.68C652.64,573,621.46,521.23,621.46,466.24Zm92.77-40.41a3.09,3.09,0,0,1-1.91,1.52c-11.33,1.18-22.67,2.26-34,3.35a6.09,6.09,0,0,1-1-.18c-2.4-15.6-4.81-31.26-7.27-47.2l65-18.59c1.78,4,3.49,7.8,5.06,11.62a3,3,0,0,1-.35,2.17Q727,402.21,714.23,425.83Zm142,170.93H720.49V588.6h135.7Zm-135.58-17V498.9c7.81,13.68,14.3,27.78,16,43.59.45,4,.69,8.09.75,12.15.11,8.3,0,16.6,0,25.09Zm135.68,0h-16.5c-2.07-28.45-.25-56.1,16.5-80.23Zm-11.74-77c-6.76,12.38-11.4,25.45-12.87,39.48-.73,7-.62,14.12-.77,21.19-.11,5.38,0,10.76,0,16.31h-85c0-1.08,0-2.11,0-3.14-.15-10.26,0-20.53-.53-30.76-.81-14.86-5.33-28.74-12.47-41.75a99.14,99.14,0,0,1-12.5-49.75c.09-6.72,0-13.44,0-20.17a6.07,6.07,0,0,1,.52-2.79c8.15-15.25,16.36-30.48,24.69-45.95,22.54,27.39,62.52,26.06,84.09,1.51.54.86,1.06,1.62,1.53,2.43q12,20.58,24,41.2a8.66,8.66,0,0,1,1.05,4c.1,6.73,0,13.45,0,20.18A96.55,96.55,0,0,1,844.55,502.77Zm60-104.23c-1.52,9.94-3.1,19.88-4.56,29.83-.25,1.68-.65,2.54-2.58,2.34-10.9-1.15-21.8-2.17-32.69-3.34a3.41,3.41,0,0,1-2.22-1.51q-13.37-22.71-26.58-45.52a2.46,2.46,0,0,1-.25-1.89c2-4.5,4.11-8.95,6.29-13.65l64.87,18.5C906,388.47,905.27,393.51,904.5,398.54Z" transform="translate(-594.28 -329)"/>
  <path d="M828.26,420.67l-12.67,11.82c-2.69,2.52-2.73,3.25-.14,5.91l12.66-12C830.77,423.9,830.73,423.25,828.26,420.67Z" transform="translate(-594.28 -329)"/>
  <path d="M822.78,440l-.29-.31.31-.29,1-1,4-3.78c2.79-2.63,2.73-3.29.18-6l-5.41,5.08-3,2.86c-2.65,2.44-2.81,3.15-.24,5.89l1.15,1.17c2.53,2.62,3.31,2.61,6,.12L823.75,441Z" transform="translate(-594.28 -329)"/>
  <path d="M824.68,439.75l2.89,3,4.43-4.17c2.69-2.5,2.67-3.23.16-5.86Z" transform="translate(-594.28 -329)"/>
</svg>