<svg xmlns="http://www.w3.org/2000/svg" viewBox="0 0 207.15 235.07">
  <path d="M665.2,487.83,665,488a5.12,5.12,0,0,1-1.32,1c-4.28.45-8.67.72-12.92,1l-.62,0a3,3,0,0,1-1.48-.17c-5.21-2.78-8.73-5.78-11.08-9.45a8.66,8.66,0,0,1-1.66-4.94l1.61.06c2.56.11,5,.2,7.42.43a6.62,6.62,0,0,1,2.79,1.05,5.71,5.71,0,0,0,7.43-.62,5.56,5.56,0,0,0-.32-7.6,5.78,5.78,0,0,0-7.48,0,3.71,3.71,0,0,1-1.83.88c-5.16-.3-10.25-.75-15.9-1.27l-.35,0a5.19,5.19,0,0,1-2-.41c-3.58-3.15-7.07-6.75-8.33-11.69-.44-1.73-.38-3,.16-3.59s1.7-.73,3.33-.45c.61.1,1.22.16,1.84.22,2.17.23,3.89.41,5.26,2.13a3.91,3.91,0,0,0,2.94,1.49,5.67,5.67,0,0,0,4.25-1.93,5.07,5.07,0,0,0,.43-6.72,5.52,5.52,0,0,0-3.72-2.42,4.22,4.22,0,0,0-3.3,1c-1.16,1-2.14.87-3.91.59l-.55-.09c-1.3-.19-2.6-.42-3.89-.66-2-.37-4.16-.75-6.29-1-3.49-.35-6-2.12-8-5.76l-.45-.78a13.68,13.68,0,0,1-1.55-3.32,55.77,55.77,0,0,1-1-5.56l-.09-.65.68.11c2.18.37,4.06.69,5.91,1.1a2.48,2.48,0,0,1,.86.77c2.09,2.64,5,3.26,7.52,1.58A5.58,5.58,0,0,0,621,425c-1.54-2.47-4.56-3.14-7.5-1.67a3.22,3.22,0,0,1-1.72.53c-4.06-.68-8.25-1.49-12.8-2.47a2.53,2.53,0,0,1-1.31-.69l-1.23-2.19a101.78,101.78,0,0,1-5.62-11.07,15.09,15.09,0,0,1-.67-5.07c0-.42,0-.84-.05-1.27l.42,0c1.21.08,2.16.15,3.07.27l.93.11c1.76.19,2.71.34,3.53,1.51a4.1,4.1,0,0,0,3.2,1.69,5.53,5.53,0,0,0,4.34-1.66,5.25,5.25,0,0,0,.53-6.94c-2.34-3.28-5.78-2-6.9-1.63a12,12,0,0,1-4,.92,58.42,58.42,0,0,1-8.38-1,4.2,4.2,0,0,1-2.33-1.1,23.2,23.2,0,0,1-1.4-25.73c1.32-2.28,2.77-3.18,5.14-3.21A28.79,28.79,0,0,0,592,364a25.52,25.52,0,0,1,3.27-.36,8.88,8.88,0,0,1,3.68.81c2.82,1.27,5.64.66,7-1.51a5.88,5.88,0,0,0-1.06-7.52c-2-1.57-5.31-1.2-7.27.81l-.38.42a5.08,5.08,0,0,1-.56.57c-1.91.29-3.89.49-6,.69l-.92.09v-.18a25.85,25.85,0,0,1,.05-3.21c.5-5.21,3.08-9.74,5.46-13.58a7.39,7.39,0,0,1,5.92-4c1.69-.18,3.36-.51,5-.84s2.92-.59,4.36-.76a5.26,5.26,0,0,1,2.83.65c2.73,1.47,5.6,1,7.31-1.26a5.55,5.55,0,0,0-.68-7.3,5.48,5.48,0,0,0-7.53.27,7.27,7.27,0,0,0-.61.71c-.08.1-.19.25-.27.34-2.18.46-4.42.84-6.59,1.21l-.75.13A18.18,18.18,0,0,1,610,316.5a6.54,6.54,0,0,1,3-1.68c4.4-.91,9-1.69,14.12-2.39a3.84,3.84,0,0,1,2.18.7c2.61,1.68,5.6,1.48,7.43-.51a5.56,5.56,0,0,0-.2-7.59c-1.93-1.88-5-1.93-7.44-.11a8,8,0,0,1-2.85,1.31,32.63,32.63,0,0,1-3.44.52c-.72.08-1.44.17-2.15.28-1.17.17-1.59,0-1.74-.11a2.49,2.49,0,0,1-.46-1.54,8.82,8.82,0,0,1,.34-3.28c1.48-4.49,4.77-7.85,8-10.9a2.4,2.4,0,0,1,1-.27q5.57-.57,11.14-1.09l5.82-.56a2.46,2.46,0,0,1,2.58.87,4.76,4.76,0,0,0,3.48,1.73,5.53,5.53,0,0,0,4.14-1.67,5.39,5.39,0,0,0-7.18-8,7.92,7.92,0,0,0-.65.55,2.61,2.61,0,0,1-.24.23c-3.24.22-6.56.38-9.77.53l-1.48.08a5.86,5.86,0,0,1,0-.86c.67-5.61,9.87-13.68,15.52-13.68h.19c2.21.07,4.49.25,6.68.43,1.34.11,2.67.22,4,.31,1.55.1,2.38.32,3.19,1.35,1.82,2.31,4.75,2.52,7.29.52a5.32,5.32,0,0,0,1-7.25,5.63,5.63,0,0,0-3.89-2.37,4.31,4.31,0,0,0-3.42,1c-1,.9-2,.83-3.71.63l-.28,0a116.12,116.12,0,0,0-37.82,1.92c-56.37,12.16-95.66,64.54-91.4,121.84,2.57,34.54,17.86,63,45.46,84.7a111.74,111.74,0,0,0,49.75,22.19,115.24,115.24,0,0,0,34.18,1.15l.23,0c1.64-.2,2.53-.27,3.5.58a4.41,4.41,0,0,0,2.92,1.08l.54,0a5.63,5.63,0,0,0,3.86-2.26,5.36,5.36,0,0,0-.78-7.26A5.5,5.5,0,0,0,665.2,487.83Zm-67.11-206a4.62,4.62,0,0,1,1-.6,109.75,109.75,0,0,1,37.88-11.49c-4.25,3.95-7.54,8.37-7.61,14.65a136.53,136.53,0,0,0-33.54,9.38A20.94,20.94,0,0,1,598.09,281.83Zm18.66,183.83L606.45,462q-7.37-2.61-14.74-5.19c-2.18-.77-3.16-2.5-4-5.05-1.25-3.61-1.63-6.41-1.19-9l3,1.06c3.5,1.23,6.82,2.41,10.26,3.44s7,1.93,10.44,2.8l3,.76C611.37,456.63,613.72,461.29,616.75,465.66ZM555.42,424.2c-.07.77-.17,1.54-.29,2.36a84.61,84.61,0,0,1-6-9.17q3.07,3.19,6.14,6.42A.87.87,0,0,1,555.42,424.2ZM612.8,308.38l-3,.78c-3.58.92-7,1.79-10.37,2.83s-6.89,2.26-10.22,3.44l-3.11,1.09c-.47-2,0-3.94.49-6.17.09-.42.19-.85.28-1.28.8-3.78,2.58-6,5.76-7.06,5.87-2,11.82-4.17,17.57-6.24l6.29-2.26C613.4,297.86,611,302.5,612.8,308.38Zm-14.88,23a.64.64,0,0,1-.1.13c-7.07,2-14,4-21.36,6l-2.74.77a18.63,18.63,0,0,1,3-9.92,2.44,2.44,0,0,1,.94-.93c7.92-3.21,16.07-6.45,23.46-9.38A25.27,25.27,0,0,0,597.92,331.42ZM583.74,358.7,564.35,362a14.24,14.24,0,0,1,.78-9c1.29-3.12,3.36-5.44,5.68-6.36,4.56-1.8,9.3-3.42,13.88-5l3.8-1.3C585.38,345.86,583,351.85,583.74,358.7Zm5.13,60.2c-.63-.18-1.22-.36-1.79-.56l-2.1-.75C580,415.82,574.92,414,570,412a6.52,6.52,0,0,1-2.85-2.53,17.71,17.71,0,0,1-2.52-12.31l19.47,3.25C583.32,407.42,585.85,413.54,588.87,418.9Zm12.73,22.46a109.07,109.07,0,0,1-23.53-9.67c-1-.54-1.93-2.18-2.69-4.5a37.5,37.5,0,0,1-1.2-5.83c0-.29-.09-.58-.13-.88l.1,0q3.4,1,6.8,2c5.35,1.6,10.87,3.26,16.34,4.78h0c1.05.3,1.05.3,1,1.29A24.08,24.08,0,0,0,601.6,441.36Zm-33.45-22.45c0,2.41.23,4.8.46,7.32l-.18-.13c-2.2-1.56-4.28-3-6.3-4.64-1.43-1.15-2.82-2.44-4.17-3.69-1.1-1-2.23-2.08-3.41-3.07a9.17,9.17,0,0,1-2.9-5.7c1.32.89,2.59,1.73,3.93,2.48,3.37,1.87,7.06,3.81,11.64,6.08C568.07,418,568.15,418.09,568.15,418.91Zm-5.64,10.6q3.42,2,6.86,4c3.5,2,7,4.1,10.49,6.19a2.64,2.64,0,0,1,.68.65,20.88,20.88,0,0,0,.45,9.85q-5-3.89-10-7.78l-5.93-4.61c-3.2-2.47-4-5.37-3.92-9.24C561.59,428.93,562,429.23,562.51,429.51Zm-12.35-42.79c-4.18-1.37-8-2.93-10.82-6.19-.25-.3-1-1.18.5-2.62,2.73-2.62,6.08-4.08,9.92-5.44C548.23,377.66,548.34,379.72,550.16,386.72Zm-1-45.09a86,86,0,0,1,5.6-8.57c.11.68.2,1.33.27,2a1.29,1.29,0,0,1,0,.46C553,337.55,551.07,339.6,549.13,341.63Zm3,8-.86.47a8.69,8.69,0,0,1,2.25-4.62,88.77,88.77,0,0,1,14.7-12.4c-.13,2.71-.27,5.39-.44,8.07Q560,345.44,552.13,349.66Zm6.61,3.23a18.32,18.32,0,0,0-.51,2.7,42.68,42.68,0,0,0-.07,7.31c0,.39,0,.54,0,.55a2.7,2.7,0,0,1-.62.26c-4.72,1.52-9.49,3.17-14.11,4.75l-1.59.55C545.5,362.41,551.3,357.58,558.74,352.89Zm3.4-28.59c2.57-3.7,12.61-11.82,18.26-15.3v.33c0,3.15-.07,6.4-.16,9.59a1.19,1.19,0,0,1-.13.33c-6.47,4-13.09,8-19.49,11.83C560.45,328.13,560.93,326,562.14,324.3Zm-4,71.63,1,10.86c-5.47-2.43-14.36-11.07-17.43-16.8Zm18.76-2.9c-2.07-.33-4-.65-5.94-1-3.61-.72-7.42-1.55-12-2.61a3.09,3.09,0,0,1-1-.39c-1.92-3.1-5.81-11.08-.56-18.24a3.54,3.54,0,0,1,.81-.89c5.51-1.21,11.07-2.36,17-3.58l1.85-.39c-4.43,9-4.43,18,0,27.15Zm12.93-96.67c0,.05-.09.13-.05.11A122.33,122.33,0,0,0,566.5,311.6c-.54-2.2-.13-4.85,1.12-6.23a111.11,111.11,0,0,1,22.28-18.88v.2C589.9,289.87,589.91,293.15,589.86,296.36Zm-32.09,23.56-.6.65c-1.28,1.39-2.5,2.81-3.71,4.27a113.21,113.21,0,0,1,7.32-11.18C561.4,315.87,560.09,317.44,557.77,319.92Zm3.45,124.54h0a4,4,0,0,0-.37,1,96,96,0,0,1-8.2-12.84c2.48,3,5,6.11,7.58,9.1l.11.12C561.56,443.24,561.71,443.51,561.22,444.46Zm5.65,3.41a44.09,44.09,0,0,0,3.73,2.79l.84.53c5.3,3.38,10.77,6.88,16.33,10.05,2,1.15,2.66,1.88,2.48,3.92a47.46,47.46,0,0,0,.1,7.33l0,.46-1.71-1.17c-3.17-2.17-6.45-4.42-9.45-6.85h0a79.37,79.37,0,0,1-6.08-5.67c-1.44-1.44-2.92-2.93-4.47-4.32C566.5,453,566.59,450.81,566.87,447.87Zm30.82,27.71c-1.77-5-2.3-7.1-1.59-10.1a136.44,136.44,0,0,0,33,9.18c.31.91.6,1.78.87,2.64a31.66,31.66,0,0,0,2.81,6.84,29.23,29.23,0,0,0,4.34,5.2l-.18,0c-3.09-.42-6-.8-8.89-1.36a102.2,102.2,0,0,1-27.73-9.55A5.85,5.85,0,0,1,597.69,475.58Z" transform="translate(-532.71 -262)"/>
  <path d="M725.88,396c5.49-1.12,10-4.39,14-8.55a33.56,33.56,0,0,0-11.35-7.63,4.88,4.88,0,0,1-2.48-2,5.43,5.43,0,0,0-4.82-3.46,57.27,57.27,0,0,0-7.29-.2,7.29,7.29,0,0,0-5.82,3.46A14.58,14.58,0,0,1,704,381c-1.38.92-2.93,1.56-4.36,2.4-4.53,2.65-5.15,2.6-9.32-.55-1.66-1.25-3.43-2.34-6-1.15,3,3.82,3.1,7.64-.3,11.87,1.71,0,2.78.29,3.58-.06a20.79,20.79,0,0,0,4.2-2.56,4.87,4.87,0,0,1,5.62-.66c1.84,1,3.58,2.13,5.44,3.25l-1.94,1.8C709.48,398.18,717.73,397.66,725.88,396Z" transform="translate(-532.71 -262)"/>
  <path d="M681.1,429.06c-1.3-3.49-4.32-4-7.28-3.95-2.61.07-6.33.11-7.58,1.71-2.59,3.33-6,4.87-9.37,6.81-4.41,2.55-4.57,2.55-8.58-.49-1.52-1.15-3.13-2.12-5.4-.89,2.67,3.41,2.7,6.83-.33,10.69,1.6,0,2.57.24,3.32-.05a11.87,11.87,0,0,0,3.35-2,4.91,4.91,0,0,1,6.68-.31c1.2.83,2.47,1.55,3.79,2.36l-1.87,1.66a67.2,67.2,0,0,0,7.71,1.8c2.12.24,4.33-.34,6.48-.23,8.4.42,15.32-2.66,21.5-8.73a30,30,0,0,0-10.61-7.12C682.23,430,681.31,429.63,681.1,429.06Z" transform="translate(-532.71 -262)"/>
  <path d="M675.16,317a9,9,0,0,0,2.72-.19,13.39,13.39,0,0,0,3.33-2,4.88,4.88,0,0,1,6.47-.29c1.23.83,2.52,1.56,3.83,2.36l-1.3,1.46c10.9,4.11,28,2.07,35.48-7.54l-10.4-6.21c-.73-.44-1.91-.65-2.17-1.27-2.13-5-6.46-4.26-10.51-4.17a7.43,7.43,0,0,0-6.64,3.94,7,7,0,0,1-2.55,2.09c-1.65,1-3.43,1.74-5.09,2.7-3.79,2.19-4.43,2.16-7.94-.59-1.52-1.18-3.12-2.18-5.23-1.32.57,1.84,1.53,3.55,1.53,5.26S675.79,314.81,675.16,317Z" transform="translate(-532.71 -262)"/>
  <path d="M641.61,383l-9.07-5.43c-.66-.39-1.7-.63-1.91-1.19-1.42-3.7-4.73-3.62-7.67-3.68-2,0-4.84.32-5.76,1.6-2.25,3.16-5.63,4.25-8.54,6.21-2.57,1.73-4.69,1.69-7.09-.35-1.15-1-2.86-1.3-4.32-1.91l-.74.72c2.6,3.14,2.14,6.32.22,9.43,2.65.93,4-.94,5.76-1.71A7.73,7.73,0,0,1,607,386c1.57.36,2.91,1.67,4.38,2.58l-1.1,1.26C620.78,393.77,636.34,391.12,641.61,383Z" transform="translate(-532.71 -262)"/>
  <path d="M667,346.34c-1.89-2.45-7.09-3-9.42-1.06-1.9,1.61-3.95,3-5.9,4.57a3.55,3.55,0,0,1-5,0,12.08,12.08,0,0,0-2.54-1.31c-.15,2.49-.29,4.64-.45,7.28,1.13-.54,2.4-1.06,3.58-1.75,1.93-1.13,5.6-.57,6.14,1.41.68,2.48,2.43,1.94,4,2.07.84.08,1.74-.29,2.56-.16,5.84.93,10.61-1,15-5.7-2.3-1.46-4.28-2.69-6.23-3.95A7,7,0,0,1,667,346.34Z" transform="translate(-532.71 -262)"/>
  <path d="M725,458.35c-2.35-2.16-7.15-2.38-9.55-.28a41.55,41.55,0,0,1-5.68,4.06,3.8,3.8,0,0,1-5-.43,8.55,8.55,0,0,0-2.83-1.17c.13,2.52.24,4.59.38,7.22,1.08-.52,2.36-1.11,3.63-1.74,1.53-.76,5.51.2,5.71,1.7.37,2.67,2.43,2,3.84,2.23,1.58.24,3.27-.18,4.91-.21A16.78,16.78,0,0,0,733.17,464c-.84-.6-1.52-1.11-2.23-1.59A48,48,0,0,1,725,458.35Z" transform="translate(-532.71 -262)"/>
</svg>